<svg xmlns="http://www.w3.org/2000/svg">
<defs>
<font id="FFXYevon" horiz-adv-x="2270" >
  <font-face 
    font-family="FFXYevon"
    font-weight="400"
    font-stretch="normal"
    units-per-em="2048"
    panose-1="2 0 0 0 0 0 0 0 0 0"
    ascent="1638"
    descent="-410"
    x-height="1835"
    cap-height="1849"
    bbox="-4.0117 -437.992 2511.43 1857.3"
    underline-thickness="48"
    underline-position="-140"
    unicode-range="U+0020-007A"
  />
<missing-glyph horiz-adv-x="2211" 
d="M439 1663l-73 -11l-11 -31q-39 -121 -73 -188q49 -146 94 -230h31l63 -42q18 -10 21 -21q114 -41 178 -94q-98 -42 -220 31l-21 -31l-10 -21q-43 -40 -84 -63l-94 -146q-5 -62 -31 -115l-11 -52v-136l-10 -42v-648l-21 -21l-11 -31l-10 -21l-11 -21q-69 -89 -125 -126
v-31q73 21 125 63l21 31l32 11l21 31l21 21l21 21l52 52q62 91 115 146q603 265 251 732v52q79 94 178 136q-34 83 -32 157h32h41h32l31 -10h42h31l32 -11h31h42q162 23 261 21q-5 -94 -41 -157q112 -49 177 -136v-52q-342 -491 272 -732q172 -253 408 -366l-42 63
q-105 98 -146 209v209v63v52v63v42v31v32v73l-11 125v105q-37 82 -42 157q-33 41 -41 83q-13 11 -11 21q-108 83 -157 167q-211 -79 -230 -20q78 59 147 73q59 65 136 73l10 21q41 125 84 198l-11 42l-21 21l-10 42l-42 115l-52 10l-21 21l-94 73l-73 21q-65 18 -115 42h-32
l-31 11h-32l-31 10h-31l-74 11l-31 10h-84h-31h-136q-322 -33 -512 -188zM1024 1600q-120 -77 -136 -199l21 -10l11 -21q66 -56 104 -115q-1070 137 -136 345h136zM1453 1286h-31h-42q-163 -29 -262 -31q116 84 147 199q-72 76 -105 146q985 -102 293 -314zM1181 1485
l-21 -10q-43 -67 -83 -94q-212 -37 52 125zM1003 638q-234 -244 -62 -418l10 -83q-31 -130 -125 -199q7 -259 209 -63l42 -10q36 -112 146 -126v126q-68 56 -146 73q-2 183 -84 324q58 144 125 230h63v-73q-84 -167 -83 -324l20 -11q178 -237 408 -345l-10 32l-52 41
q-125 83 -189 178l-10 52v32q19 84 21 136q61 164 52 313l-31 21q-53 71 -105 115q104 159 -42 303h-125q-243 -129 -32 -324zM1139 795q-62 -49 -104 -73q-129 9 94 146q85 -7 10 -73zM1819 638v-41q9 -60 0 -115q12 -16 11 -32v-73v-167q4 -97 -11 -168q-419 258 -21 617

<glyph glyph-name=".notdef" unicode="A" horiz-adv-x="2211" 
d="M439 1663l-73 -11l-11 -31q-39 -121 -73 -188q49 -146 94 -230h31l63 -42q18 -10 21 -21q114 -41 178 -94q-98 -42 -220 31l-21 -31l-10 -21q-43 -40 -84 -63l-94 -146q-5 -62 -31 -115l-11 -52v-136l-10 -42v-648l-21 -21l-11 -31l-10 -21l-11 -21q-69 -89 -125 -126
v-31q73 21 125 63l21 31l32 11l21 31l21 21l21 21l52 52q62 91 115 146q603 265 251 732v52q79 94 178 136q-34 83 -32 157h32h41h32l31 -10h42h31l32 -11h31h42q162 23 261 21q-5 -94 -41 -157q112 -49 177 -136v-52q-342 -491 272 -732q172 -253 408 -366l-42 63
q-105 98 -146 209v209v63v52v63v42v31v32v73l-11 125v105q-37 82 -42 157q-33 41 -41 83q-13 11 -11 21q-108 83 -157 167q-211 -79 -230 -20q78 59 147 73q59 65 136 73l10 21q41 125 84 198l-11 42l-21 21l-10 42l-42 115l-52 10l-21 21l-94 73l-73 21q-65 18 -115 42h-32
l-31 11h-32l-31 10h-31l-74 11l-31 10h-84h-31h-136q-322 -33 -512 -188zM1024 1600q-120 -77 -136 -199l21 -10l11 -21q66 -56 104 -115q-1070 137 -136 345h136zM1453 1286h-31h-42q-163 -29 -262 -31q116 84 147 199q-72 76 -105 146q985 -102 293 -314zM1181 1485
l-21 -10q-43 -67 -83 -94q-212 -37 52 125zM1003 638q-234 -244 -62 -418l10 -83q-31 -130 -125 -199q7 -259 209 -63l42 -10q36 -112 146 -126v126q-68 56 -146 73q-2 183 -84 324q58 144 125 230h63v-73q-84 -167 -83 -324l20 -11q178 -237 408 -345l-10 32l-52 41
q-125 83 -189 178l-10 52v32q19 84 21 136q61 164 52 313l-31 21q-53 71 -105 115q104 159 -42 303h-125q-243 -129 -32 -324zM1139 795q-62 -49 -104 -73q-129 9 94 146q85 -7 10 -73zM1819 638v-41q9 -60 0 -115q12 -16 11 -32v-73v-167q4 -97 -11 -168q-419 258 -21 617
q19 -7 21 -21zM418 32l-42 10v42v32v41q2 64 -10 115l10 42v32v73v31v32q-4 96 10 167q381 -293 32 -617z" />
    <glyph glyph-name="B" unicode="B" horiz-adv-x="2051" 
d="M1389 1827l-42 -11l-21 -21h-32q-10 -12 -21 -10q-122 -82 -210 -116q-50 -67 -95 -105q-46 -142 -32 -253q13 -10 11 -21q105 -40 158 -115q93 -46 147 -106q371 24 516 369l-32 126l-31 21l-32 31l-52 64l-64 52l-84 95l-63 21zM389 1743l-73 -32q-75 -65 -148 -84
l-95 -116q-37 -117 -31 -210l21 -32l21 -42l63 -21l32 -21q99 -108 179 -158q377 24 515 369v31l-31 74l-53 73q-20 7 -21 21q-18 11 -21 21q-34 24 -53 53q-86 67 -136 137h-53q-52 -49 -116 -63zM1557 1627q-33 -249 -368 -347q-91 7 -21 105q48 66 95 105
q144 100 252 137h42zM663 1574q-85 -289 -379 -336q-27 2 -42 10q127 265 389 337zM705 1090q-186 -233 -442 -252q-29 108 -74 179q-37 -128 11 -232q121 -113 263 -126q49 32 84 42q250 385 621 179q27 -2 42 -11q96 -37 168 -42q-134 -123 -484 -52q-119 -55 -189 -116
l10 -53q167 77 316 63q571 -335 842 285v10v-10v10l-137 116q-135 -192 -305 -32q-64 -13 -31 -126q-199 45 -327 168q-51 8 -84 42q-87 24 -147 21q-78 -43 -137 -63zM1968 585l-105 -31l-43 -11q-74 -30 -126 -42q-16 -12 -31 -10q-46 -33 -85 -43l-221 -105
q-81 -100 -157 -147l-11 -42l-21 -11l-11 -31l-94 -169l-32 -10q-67 -102 -158 -148h-42h-31h-42h-190q-246 204 -200 495q383 59 295 -347q18 -11 21 -21h31q11 18 21 21l32 10l11 21l31 11l74 63q103 52 158 116q0 40 21 63q-27 74 -32 126q-70 85 -105 158
q-293 150 -526 -32q-439 -219 -348 -662q262 -376 716 -148h32l31 21h32l21 21h31q47 36 95 42q41 37 84 42q41 37 84 53l32 11l32 10q47 60 105 84l21 42l32 32l10 32l21 31l21 21l11 21q60 119 126 190q201 183 431 231q71 39 -10 63z" />
    <glyph glyph-name="C" unicode="C" horiz-adv-x="2198" 
d="M743 1809q-407 -75 -682 -315q-64 -176 -10 -325l132 -31l21 -20l30 -10q57 -52 112 -72l30 -20l61 -41q76 -33 122 -71h133l-10 -71l-123 -244q133 -52 92 -193q238 44 366 223q120 -7 204 -81l-21 -30l-30 -21h-31q-95 -58 -173 -81l-10 -21q-86 -28 -142 -61l-10 -30
l-31 -20l-30 -41l-21 -31l-20 -20q-10 -18 -20 -20l-11 -31l-20 -30q-35 -45 -51 -82l-10 -20l-20 -20l-11 -21q-45 -96 -91 -152v-61l51 51l30 30l10 31l31 20l10 20l10 21l11 20q10 17 20 20l71 102l132 71q89 14 153 41q10 12 20 10l20 20l143 92q24 33 61 51
q38 50 81 81q47 -32 61 -81h61q95 136 224 203v71q-274 117 -203 367h71q354 -18 417 -326q70 -272 -265 -336l-30 -10l-20 -20l-41 -10q-10 -12 -20 -10l-21 -21h-30q-75 -60 -153 -81l-30 -41l-21 -30q-43 -39 -71 -72l-10 -30l-20 -10q-33 -78 -72 -122l-20 -31
q-55 -116 -112 -183v-71q41 41 61 81l31 11l10 20l10 20l10 21l21 20q19 38 50 61q29 62 72 102q51 15 91 50l92 11q376 187 569 498q389 434 -122 773h-30q-139 42 -244 30l-41 -30l-31 -10l-10 -21l-30 -20l-21 -20l-30 -21l-132 -101q-11 -60 -31 -102q-88 12 -152 41
l-31 61l61 30q31 43 71 61l21 31l40 61q17 9 21 20q38 61 71 92l-41 162l-41 31l-30 20l-41 31l-30 20l-31 31l-30 10l-31 30l-20 21l-61 50q-86 41 -132 92h-31h-122zM814 1240q8 91 40 152q-141 22 -233 92l71 20l20 21l41 10q156 5 254 30q42 -243 -193 -325zM621 1464
l-21 -21q-28 -90 -91 -142v-31q119 -12 193 -71q-148 -88 -265 0q6 193 163 275z" />
    <glyph glyph-name="D" unicode="D" 
d="M299 1603q89 -40 131 -119l11 -33q12 -11 11 -22l21 -11l98 -152q54 8 88 0l217 -76h44l33 -11h32l120 -11h33h43h33h33h108l98 11q309 26 523 196v32q-67 95 -98 175l-22 65q-48 66 -54 131q-79 9 -131 32l-54 -11h-55l-32 11q-55 1 -87 11h-44l-33 11h-152
q-57 1 -87 11h-33h-43h-33h-218q-332 -19 -501 -240zM963 1614h88h32h44h32l218 -21l76 -11l33 -11q121 -5 207 -33q-18 -52 -54 -76q-519 -118 -948 11l33 76h33q93 50 174 65h32zM1769 1146q-188 -170 -316 -11l-32 -207q116 -46 174 -130v-66q-348 -496 283 -751
q175 -261 414 -392v32q-112 105 -163 196q-20 102 -22 175v152v33v196v141v44v185v33v130l22 11q54 110 141 164q-17 157 -141 218q-138 -192 -360 -153zM114 1266q-69 -91 -98 -185q107 -74 163 -153l11 -87v-218q3 -87 0 -141l11 -33v-392q4 -127 -11 -218l-22 -32
l-21 -44l-22 -11q-41 -92 -109 -141v-33l152 87l11 33l33 11l22 32l22 33l32 11q85 128 153 196q618 253 272 740v77q68 94 163 119l11 22l-11 22l-32 174q-137 -159 -294 0q-248 -27 -371 153h-54zM1040 928q-4 -102 -22 -174q-224 -642 109 -1143l54 -44q136 190 142 392
q88 190 65 381q-24 458 -283 599q-34 -12 -65 -11zM1911 700v-327l11 -22v-33l-11 -32q18 -122 -11 -218q-406 286 -33 642zM495 101q-54 -26 -98 -33v87l-11 55l11 32v44l-11 87l11 22v87v218q387 -208 98 -599zM1094 536q176 -278 185 -566l-65 22q-172 280 -185 566z" />
    <glyph glyph-name="E" unicode="E" horiz-adv-x="2309" 
d="M770 1798q469 -177 668 -586q73 -77 94 -164q104 -112 128 -234q205 -265 47 -516q-101 -258 -328 -328q-448 -136 -738 176q-278 251 -270 598q208 192 411 0q231 -116 105 -328q-111 52 -176 105q-78 90 -164 141q99 -360 399 -492q11 13 23 11q12 14 24 12
q91 73 164 105l23 36l35 23l35 23q12 21 24 24q60 76 129 117q45 79 105 117v35q14 45 12 94q-36 37 -47 82l-47 35l-12 35q-59 39 -82 82l-35 12l-70 82q-81 55 -129 106q-675 -34 -996 -551q-92 -230 -82 -434q259 -494 738 -644l35 12l211 23q56 30 94 35l23 12l141 59
l82 35l12 23l35 12l141 82l23 12l23 23q75 29 118 70l47 12l35 35l35 12q48 59 105 82q12 20 24 23l23 24l24 23l175 141l12 35l24 12l105 152q-80 296 -270 480l-117 176l-47 24l-11 35l-59 58q-104 66 -164 141l-47 12l-12 35l-46 12l-24 35l-47 11q-57 36 -93 71l-82 47
l-36 23l-23 12l-47 11l-23 24l-36 12l-35 11l-23 12l-176 82h-117v-47z" />
    <glyph glyph-name="F" unicode="F" 
d="M1724 321q2 -101 -34 -165q-372 -410 -803 -177q-401 171 -496 551q-38 463 430 143q321 -222 77 -540l77 12l33 22l33 22l44 22l33 33l77 66l33 11l22 22l33 22l33 33l11 22l33 11q83 112 176 176q36 106 -33 176v66l33 44l77 143v33l33 33l11 55l22 22l11 33
q48 97 89 155v33l22 22v33l88 165l44 11l-88 121q-132 4 -232 -66l-88 77q-260 -41 -473 22q-61 -31 -110 -44q229 -212 121 -264q-302 -9 -507 -176q34 -151 111 -254q-461 -220 -650 -649q2 -72 11 -121q35 -83 44 -144q13 -11 11 -22q74 -102 99 -187l22 -11
q260 -257 562 -341l22 11h44l22 -11q89 32 154 22l44 11q85 51 165 55q49 37 99 44l44 22l99 55l99 44q71 57 144 77l33 33l44 33l44 11l22 22l33 11l11 22l22 11l44 11q11 20 22 22q35 23 66 33q57 74 121 100q28 58 66 88q-375 868 33 1497q-14 38 -44 44
q-603 -720 -495 -1519zM1602 1587q-24 -102 -88 -176q-73 -272 -330 -265q-228 -58 -308 133l66 33q89 5 154 0q83 -4 143 11q94 189 253 264h110z" />
    <glyph glyph-name="G" unicode="G" horiz-adv-x="2215" 
d="M626 1599q-334 -511 144 -770q195 -102 380 -51q28 70 71 113q14 66 52 102q24 97 71 154q-22 28 -41 41q-145 -53 -277 -41q-582 267 -174 390q309 17 534 -144q218 -71 277 -266q95 -309 -298 -513l-21 -21l-61 -21l-10 -30q-66 -37 -103 -82h-31q-74 19 -123 20
q-231 65 -421 41q-15 -11 -30 -10l-11 -21l-71 -41l-72 -41q-23 -37 -62 -51l-20 -31l-62 -51l-10 -31l-52 -62q-35 -33 -51 -61l-20 -10l-11 -21q-61 -84 -92 -144l41 11l51 61l72 62q10 17 21 20l61 52l11 20l195 134h82h30h31l41 -11l31 11l41 -21l21 10l71 -20
q112 -5 185 -31q-142 -345 -72 -667l31 10q-4 295 267 524q56 28 92 61h82h31h31h72h225q62 39 124 41q380 200 297 513q-71 106 -174 134q-134 -127 -288 -164l11 41v41l20 30l10 42l11 30q10 86 30 144l11 41l51 267q-12 10 -10 20l-41 134q-333 338 -760 359
q-276 -72 -441 -246zM2063 460q-119 -95 -247 -62q-122 -24 -225 0l10 21q10 11 21 10l10 20q34 100 72 154l123 21q253 1 236 -164z" />
    <glyph glyph-name="H" unicode="H" horiz-adv-x="2244" 
d="M2091 1750q-175 -97 -271 -240q-240 -88 -386 -271q-24 -122 -21 -199q31 -51 32 -93q158 -115 -94 -178q-52 194 -199 240q78 56 147 73l10 52h31q80 175 73 345q-53 56 -73 115q-48 50 -62 104q-175 226 -376 -146l10 -21q-42 -114 -31 -219q52 -58 63 -125
q70 -74 83 -178q56 14 84 11q-55 -72 -126 -94q-17 -85 -62 -146q-92 27 -146 83q57 113 115 177q-50 373 -418 449q-200 252 -438 334v-42q74 -46 104 -104q66 -40 94 -94q22 -84 21 -146l21 -177q18 -114 10 -188l21 -84q-3 -66 0 -115q16 -60 11 -104q-70 -79 -125 -125
l10 -42l115 -115q159 139 354 115q25 22 53 31q-102 -129 -230 -187q-41 -44 -83 -63q-301 -485 -84 -678q313 -186 616 -94v31l21 -10l10 20l52 21q37 76 94 115l-10 31h31v63q36 -60 52 -104q12 -11 11 -21q62 -52 104 -125q332 -112 616 31v31l62 11l-10 31l52 21
q7 56 31 104v42q-12 16 -10 31l-11 32q-18 62 -21 114q-44 80 -52 157q-47 62 -62 125q-55 31 -84 73q-155 69 -250 188q50 -8 104 -31q171 16 251 -94l62 -11l11 11l20 10q24 77 84 105q-46 100 -125 146l-11 41l11 53l10 135v115q20 78 11 136l20 41l-10 21l21 42l-11 21
l11 21q-3 133 31 229l21 11q74 111 167 167l-10 42l-42 10q-73 -56 -105 -94zM1173 1374q-46 -102 -146 -114q64 185 209 281q25 -102 -63 -167zM506 926l-11 31v31l-10 32v31q-15 104 -11 177q-20 83 -10 157q361 -205 42 -459zM1810 1374v-31l10 -31l-10 -52
q-1 -107 -21 -178q6 -84 -11 -146q-274 217 0 438h32zM1017 466q72 197 229 293q-17 -231 -229 -293zM1445 477q28 -53 31 -94q51 -21 52 -73q16 7 31 0l21 -31l52 -42q55 -15 84 -42l21 -21q69 -37 94 -94q26 -2 41 -10q-24 -200 -219 -219q-145 -73 -292 -42v31
q33 -1 52 42q137 60 251 21q54 -6 83 52q-68 158 -156 251q-82 -22 -157 0q-6 -20 -21 -21l-62 -11q-16 -11 -32 -10q-79 -87 -156 -125l-11 -84q-87 197 -271 219q-244 78 -344 -229l62 -42q208 61 334 -84q-302 -49 -511 136q-16 81 10 146q67 46 105 84q254 116 334 355
q127 -146 167 -303q332 -10 375 323q26 -42 32 -83z" />
    <glyph glyph-name="I" unicode="I" horiz-adv-x="2234" 
d="M695 1523q118 -47 194 -122q-39 -84 -102 -132q-134 71 -203 173q-346 29 -550 -193q-7 -74 0 -122l92 -31q299 -307 610 -10q71 -37 112 -82l-20 -40l-21 -10q-54 -49 -101 -62l-163 -162l10 -163q39 -60 41 -112q29 -56 30 -102q97 -167 92 -336l-31 -71l-40 -30
l-31 -21l-41 -30l-30 -21l-31 -20l-20 -20l-31 -10l-40 -21q-41 -40 -92 -51q-86 -77 -183 -101l-10 -31q60 -7 102 10q41 32 81 41l81 41h31q107 74 203 101l61 41q77 64 143 81q33 42 71 51q68 82 132 122q18 37 41 61v72l-51 173q-74 105 -91 193l-41 71v72
q218 35 366 -296q40 -47 51 -91q-434 -468 163 -672q101 1 173 31q64 105 51 203q-212 85 -305 255q1 88 30 152q127 35 112 143q34 44 61 61q-66 289 -305 407v41l20 10q85 98 194 142l50 -10q201 -224 448 -102q199 69 224 255q-140 96 -214 203q-321 16 -529 -163
l-183 92l-10 20q149 90 163 244l-31 11q-117 137 -244 193q-513 -24 -489 -326zM1286 1707q-114 -185 -316 -214q-154 -34 -20 102q151 79 254 112h82zM2059 1310q-157 -222 -407 -214q120 201 366 224zM624 1310q-116 -198 -336 -224q-131 -1 21 122l20 10l71 31
q11 12 21 10q75 35 132 51h71zM1316 1055q-258 33 -417 204l10 30q312 -12 407 -234z" />
    <glyph glyph-name="J" unicode="J" horiz-adv-x="2260" 
d="M1389 1626v-105l63 -41q58 -57 83 -115l73 -42q248 21 324 240l11 73q-107 101 -157 209h-94q-219 -40 -303 -219zM282 1532q103 -81 146 -167q53 -26 84 -53q223 34 313 220q11 53 11 94l-21 21l-42 62q-64 58 -94 126h-125q-267 -65 -272 -303zM1817 1688
q-99 -188 -292 -219q78 192 261 240zM710 1688q-98 -201 -303 -219q93 178 262 230zM857 1302q-14 -83 -11 -146q102 -70 136 -157q336 -135 418 261q-45 42 -63 94q-71 49 -94 115h-146q-158 -54 -240 -167zM1264 1333q-83 -215 -293 -229q81 171 241 229h52zM1201 592
q55 -112 52 -209q52 -14 84 -42q15 -121 10 -209q-49 -88 -115 -135l-10 -21q-48 -32 -73 -63q-284 137 -219 439l83 42q-2 102 42 177v42q-38 105 -52 177q-149 283 -428 334l-32 -31l-31 -21q-11 -18 -21 -21q-10 -18 -21 -21q-79 -126 -177 -198q14 -66 0 -115l10 -31
l10 -94q41 -89 42 -167q81 -228 63 -428l-52 -84l-32 -31l-21 -31l-31 -11l-21 -31l-21 -21l-52 -52q-107 -71 -167 -157l52 10q46 39 94 53l11 21l21 20l73 32q55 65 125 94l10 21q11 18 21 21l21 20l11 21l31 11q59 82 115 125l10 21l73 125l-10 146q-12 16 -10 32
l-42 104l-11 42l-10 73q-47 101 -52 188l21 42q216 -89 282 -439q-127 -169 -147 -344q17 -122 63 -209q218 -260 365 -42q143 -252 387 94q69 295 -115 501v52l21 11q58 239 219 386l63 -21v-52l-11 -31l-10 -42l-10 -42l-84 -261v-31q-19 -99 -10 -167q12 -11 10 -21
l104 -157l32 -31l42 -31l31 -21l10 -21l105 -94q52 -34 83 -63q114 -66 178 -125l73 -11l-10 32q-93 58 -147 125q-172 119 -250 272v135v32l10 21l11 104q38 105 41 188q67 184 42 345l-21 20l-10 21l-21 11q-112 162 -251 240q-384 -162 -449 -543z" />
    <glyph glyph-name="K" unicode="K" horiz-adv-x="1988" 
d="M1041 1618q144 -139 162 -302h-43q-55 23 -87 43q-85 5 -151 32h-32l-86 22l-33 10h-43q-127 39 -226 33q-336 -168 -432 -529q-222 -668 529 -927q120 -2 205 21q376 246 334 658q-19 11 -22 22l-75 43q-67 25 -108 65q-111 27 -183 97l-43 -22v-108q102 -238 -97 -464
q-344 -255 -270 281q128 715 647 669q256 -177 367 -432q60 -54 86 -118q-278 -213 -313 -529q-71 -196 -21 -367q590 -521 863 97q84 346 -346 410v119q11 64 11 108q380 1053 -356 1294q-185 -64 -237 -226zM1526 1164q-51 17 -75 54q-179 31 -151 205q-9 169 108 259
q170 -36 118 -518zM1408 32q339 60 420 -183q-335 -119 -571 161q-90 280 183 400q162 -87 -32 -378z" />
    <glyph glyph-name="L" unicode="L" horiz-adv-x="2205" 
d="M374 1699q-34 -112 -120 -163v-120l22 -22q53 -125 130 -196l-21 -32l32 11q133 -95 251 -120q201 36 283 207q199 114 108 326q-234 284 -576 250q-33 -98 -109 -141zM776 1481q83 -88 98 -196q-359 51 -413 349q190 -48 315 -153zM374 981l-22 -33l-33 -11l-21 -22
l-33 -10l-11 -22l-33 -11q-68 -83 -130 -120q-180 -530 185 -903q139 -200 348 -272h33l109 22h32q60 26 109 32h33h32l44 22q88 32 152 33q64 50 142 54q37 39 76 44l32 43l44 33l22 22q63 87 119 130q113 230 294 359l11 22q151 70 294 54q-19 67 -131 66
q-341 -2 -598 -163q-84 -69 -131 -120l-65 -65q-36 -104 -87 -164q-76 -170 -196 -261q-248 -21 -392 142q-348 361 -348 816l76 43q409 -218 359 -674h33q80 75 163 98q55 43 109 65q23 41 54 65q-68 464 -435 686h-32q-81 11 -131 11q-39 -12 -76 -11z" />
    <glyph glyph-name="M" unicode="M" horiz-adv-x="2374" 
d="M997 1756q39 -144 23 -281q-182 -638 67 -1126q54 13 68 56q144 5 236 34l79 180v34v33l11 23v34q22 84 23 146l11 34v79l11 67q-13 67 0 124l-11 34v34v45l-11 112q-29 89 -23 169q-49 68 -67 124q-238 -25 -360 135q-30 -57 -57 -90zM1639 1733q31 -144 11 -258
q-131 -540 0 -1014q56 -62 79 -112q110 83 236 67l57 34q23 57 56 90l11 34v34l12 33v34l22 90l23 135v45v45v192v34v135l-12 33v34l-22 180q-56 65 -79 124q-221 -27 -349 124q-32 -60 -45 -113zM389 1542l-11 -22q-46 -204 -45 -338q-95 -473 113 -833q55 19 79 56
q134 -1 236 45l11 45q49 104 68 180v34l11 90l11 34v34v33q11 54 12 90v34v34v34v34v135l-12 67v34v45q-27 110 -22 191l-45 68l-57 56q-201 -42 -303 113h-34q-58 -144 -12 -293zM1875 1576l34 -11v-34q29 -80 34 -135v-124q3 -91 -11 -158v-67l-12 -180l-11 -68
q-9 -119 -45 -203l-45 -11v34l-22 146v79v124v124v45l11 45v90q38 176 45 281zM637 1542l34 -180v-248q-15 -73 -11 -124l-12 -67l-11 -68v-90l-45 -180l-34 -11l-33 56l-12 214v34v34v33v34v34q-2 64 12 113v33v34v45l11 23v45l56 259q29 -7 45 -23zM1301 1508v-33l12 -91
v-213v-34q2 -68 -12 -124v-113l-33 -191q-21 -55 -23 -101l-45 -34q-109 533 34 991q48 -17 67 -57zM1808 180q-408 -61 -518 146q-77 -34 -146 0l-34 -11q-62 -95 -124 -135h-56h-147h-45h-123l-34 -11l-34 11q-200 -28 -338 0q-100 69 -146 158l-45 -12q100 -221 281 -349
q222 -565 563 -259q119 -37 147 -146q87 34 157 34q-19 55 -56 90v45q82 173 79 326h34l11 -67v-90q57 -133 67 -225q-39 -33 -56 -68l169 -45q26 101 90 158q430 -293 585 236q205 167 293 372l-45 11q-183 -252 -529 -169zM772 0l68 -23q-223 -300 -428 -22q30 57 169 45
q106 -21 191 0zM1594 0h45l90 -11q157 28 282 0q-227 -320 -440 0z" />
    <glyph glyph-name="N" unicode="N" horiz-adv-x="2309" 
d="M1140 1775q-133 -58 -249 -43q-24 -108 87 -141v-43q-188 -101 -87 -270q-219 -110 -432 -87q-83 -30 -162 -32q-118 -73 -238 -65q33 -119 141 -173q-226 -193 -65 -400h32l54 -54q85 -11 152 -54q206 -33 335 -151l183 -87l-10 -32q-360 -78 -411 -335q12 -16 11 -32
l75 -119l22 -11q55 -16 86 -33l76 -32l22 11l21 -11q129 24 227 11l108 32l238 54q81 34 141 33q116 69 194 97q37 44 76 65q11 19 22 21l10 22l98 108q62 24 97 54l87 22q125 55 216 65l43 32q-509 -17 -832 -313q-209 -234 -498 -173q-267 59 -238 313q139 49 228 -43
q117 -57 86 -184q203 47 335 173q-98 245 -400 227l-86 65l-22 32q-14 61 -11 108v44v43v43v184v32v130q-23 144 98 184q80 67 162 21q71 -167 -130 -216q-11 -51 -11 -86q134 -78 335 11q34 -52 87 -76l-33 -33l-75 -43l-65 -43q-88 -87 -152 -130q15 -267 357 -346
q288 -88 638 195l11 32q-12 42 -11 87q-230 235 -530 259q-33 169 -205 173q14 128 -97 238l21 22q38 94 97 151l76 11l-11 -65l-86 -216q12 -11 11 -22q42 -38 65 -76q49 -15 75 -54l33 -10l32 -11l33 -11l10 -22q56 -15 87 -43h32q119 -65 216 -76q4 30 0 44l-21 11
l-22 10l-21 11q-169 64 -271 151v33l22 86q70 122 97 217l-11 75q-329 276 -659 -43v86l32 22l152 97q58 12 97 44h32l33 21l76 33l64 10l11 22q103 35 162 76q-60 105 -151 151h-54q-187 -115 -400 -65zM600 846v-217q17 -99 0 -173l-76 22q-160 57 -173 205
q82 111 184 163h65zM1832 273q-284 23 -454 205l11 43q304 -17 443 -248z" />
    <glyph glyph-name="O" unicode="O" horiz-adv-x="2283" 
d="M1641 1839q-51 -527 377 -752l21 -22l86 -97q7 -363 -365 -387q-320 -101 -183 129q171 96 344 54l21 54q-18 11 -21 21q-68 142 -129 226q-247 3 -398 -161q-67 -270 97 -462q311 -203 580 -11q288 151 172 462l-10 43v32l-11 43l-22 22l-75 236l-32 33q-64 47 -86 96
h-32l-237 226v32q-62 104 -64 194q-17 -12 -33 -11zM458 1216l33 -11q69 -53 129 -75q54 -69 118 -108q38 -43 54 -86q-3 -241 -204 -290q-193 -136 -398 -75q57 283 376 182l43 54l-32 32q-64 144 -129 226q-269 -6 -420 -204q-25 -287 172 -462q301 -151 538 32
q144 74 204 204v97l-10 43q-24 64 -22 118l-21 32v33l-11 64q-44 80 -54 151q-39 48 -43 96q-85 66 -118 129q-298 148 -312 441h-43q-48 -356 150 -623zM1297 334q89 -75 129 -140q28 -219 -150 -290q-209 -152 -441 -97q37 273 365 183q39 23 54 54l-32 21
q-58 142 -118 226q-266 20 -420 -183q-44 -238 97 -419q304 -213 581 -32q303 158 183 473v32q-13 16 -11 32q-17 40 -22 75q-50 102 -64 194l-76 75l-21 33l-22 32q-18 11 -21 21l-65 43l-53 54l-119 97q-73 127 -75 247l-32 22q-110 -513 333 -753z" />
    <glyph glyph-name="P" unicode="P" horiz-adv-x="2194" 
d="M131 666l33 -11l10 -21l54 -65q95 -47 139 -96q45 -15 75 -32q225 17 333 -140q166 -40 150 -214l-11 -65q-269 -223 -568 -150q73 212 407 161v32q-89 108 -118 215l-75 10h-107q-392 -158 -193 -461q269 -332 676 -86q212 -247 343 -128v21l21 75l-10 75l21 129
q-12 16 -11 32v43q1 82 -10 139l21 33q-30 105 11 203q-24 6 -32 22h43q96 -104 225 -107l-43 75q-138 54 -150 193q-2 159 182 161q260 -226 21 -526l-21 22l11 -33l-75 -53q-43 -79 -118 -97q-6 -28 -22 -43q12 -16 11 -32q90 -60 129 -129q48 -22 75 -64l21 11
q77 53 118 96v11v-11v11l32 -11q79 19 140 0l21 43l54 11q47 86 107 129l-11 32l97 -11q-38 220 -225 236l10 75q-33 76 -32 140q-77 62 -107 139q-65 21 -86 75l-32 -11q-149 202 -365 193q-34 61 -32 118l-53 33l-54 21l-32 11q-29 44 -65 64l-42 11q-69 64 -140 86
q-106 96 -214 128q87 -272 -65 -472q-10 -83 -75 -64q5 111 -64 129q-32 -132 0 -247q-86 -70 -172 -11q-14 117 11 204q23 170 96 279q68 172 183 268q147 250 429 204q117 -93 150 -204q50 -12 86 -96q106 -256 343 -354l64 -54l65 11v-32l21 10q251 -67 472 0
q-7 23 -21 33q-201 0 -344 118q-45 66 -96 96l-11 43l-21 11q-45 73 -86 118q-65 75 -86 150l-21 -11l-11 32q-96 60 -140 129l-32 -11l-32 22l-21 11l-86 32l-22 10q-101 19 -160 54q-41 -7 -76 11q-16 -7 -32 0q-56 -2 -86 11q-128 30 -225 21q-718 -451 -472 -1169z
M1000 784l11 -32v-290q-3 -65 0 -118l-32 -11q-47 156 -161 247q41 31 53 75l43 11q22 63 65 96l10 54q17 -15 11 -32z" />
    <glyph glyph-name="Q" unicode="Q" horiz-adv-x="2172" 
d="M1031 1834l-152 -32l-32 -11h-33q-87 -46 -162 -54l-11 -22q-81 -33 -140 -97v-54l21 -22l33 -43l11 -32q20 -7 21 -22l22 -22l11 -21l43 -65q71 -55 108 -119l33 -11l10 -32l54 -44q91 -44 141 -97l-43 -11h-33q-85 -27 -151 -22h-32h-130l-141 33h-32h-43h-33h-216
q-390 -210 324 -368v33q-105 26 -86 119q166 133 378 86q70 -204 -11 -378h-32q-62 24 -119 21l-108 22h-33h-43q-11 -6 -21 0q-100 -41 -184 -33l-11 -32q197 -62 313 -119q144 23 249 11q28 -120 22 -206q-15 -56 -33 -86h-32l-33 11h-43l-86 21l-87 22q-78 24 -130 22
q-117 52 -140 0q173 -62 281 -152l108 -86l22 -22l21 -11l11 -21q85 -41 141 -87l43 -11l270 -86h33l119 -33q82 -25 140 -32l87 -22q130 -45 238 -43l-33 32q-169 26 -281 76q-167 28 -292 108q7 40 33 65v216v184v119v44l-11 32v43l11 22v32v217l54 43q114 57 216 65
q253 -104 368 -303q102 1 64 108q186 -74 152 -259q-48 -211 -379 -292q-117 -7 -205 21q3 268 400 195q-66 338 -292 303q-530 -285 -65 -692h33l21 -11l98 -44q347 26 540 282v32q15 44 11 87q-18 44 -11 86q-33 79 -32 141q-17 39 -22 75l-11 33q-38 68 -43 130
q-40 58 -54 108q-58 36 -97 75l-11 33l-22 11q-108 74 -162 129q-39 42 -54 87q604 24 508 292l-11 22l-43 54l-22 10q-50 23 -75 55q-104 46 -162 97h-33l-21 11q-54 6 -98 32l-151 33l-184 32h-43h-33h-216q-16 -12 -32 -11zM1485 1650q192 8 324 -65q-250 -222 -584 -108
q-81 4 -140 -10l11 -33l32 -11q18 -11 22 -21l32 -22l22 -11l21 -11q106 -108 217 -151h75v-32q41 -88 43 -163l-32 11l-22 11l-75 43l-162 65l-33 11l-32 11l-33 11l-86 32q-171 65 -271 130q-24 83 -10 151q329 169 659 152z" />
    <glyph glyph-name="R" unicode="R" horiz-adv-x="2214" 
d="M762 1690q2 -60 32 -97q400 -190 708 43v32q13 41 11 86l-65 11q-187 81 -364 75q-198 -45 -322 -150zM1223 1668q-60 10 -75 65h32q39 32 75 43q140 -21 -32 -108zM976 1572q13 74 65 107q161 -76 -65 -107zM1480 1475q11 -55 33 -86q516 -217 708 86l10 75l-86 22
l-21 11q-148 54 -257 64q-237 -31 -387 -172zM54 1465l21 -76q471 -232 719 76l11 75l-32 10l-22 11l-32 11q-161 53 -279 64q-245 -20 -386 -171zM1942 1465q-51 19 -65 64q54 31 97 43q135 -17 -32 -107zM537 1465q-64 -4 -97 42v11v-11v11l86 43q136 -7 11 -96z
M1759 1379q-137 -8 22 107q114 -68 -22 -107zM419 1400q-249 -86 -75 75q58 -25 75 -75zM762 1175q473 -286 740 43q13 41 11 86h-33q-73 31 -128 43q-108 53 -215 53q-354 -65 -375 -225zM1245 1229q-74 -23 -97 53l139 43q58 -59 -42 -96zM1041 1132q-137 -7 21 107
q116 -82 -21 -107zM1480 1025q12 -56 43 -97q531 -197 698 97l10 64l-21 11q-59 25 -107 32q-125 59 -236 64q-236 -31 -387 -171zM193 1132l-139 -107q9 -55 32 -97q134 -24 225 -86q464 -33 494 247l-22 11l-85 21q-104 31 -172 65h-150q-97 -47 -183 -54zM590 1057
q-46 -42 -86 -64q-121 86 54 128q63 -8 32 -64zM1942 1014q-48 19 -65 64l97 43q138 -21 -32 -107zM1759 928q-126 0 22 107q112 -73 -22 -107zM269 917q21 72 75 108q149 -97 -75 -108zM762 746q429 -299 751 32v86l-86 21l-22 11l-85 21q-98 45 -183 43
q-331 -55 -375 -214zM1234 778q-58 13 -75 64q59 31 107 43q104 -33 -32 -107zM1127 714q-256 -67 -65 85q59 -24 65 -85zM54 574l32 -75q153 -40 247 -107q384 -6 472 214l11 43l-129 43q-145 53 -247 65q-240 -40 -386 -183zM1480 585q14 -50 33 -86q599 -239 729 150
q-220 104 -418 108q-211 -45 -344 -172zM1942 574q-45 27 -65 65l97 43q138 -18 -32 -108zM612 671q-82 -189 -161 -32l86 32h75zM419 510q-253 -73 -54 86q46 -39 54 -86zM1695 488q30 69 86 108q175 -90 -86 -108zM762 317q385 -289 740 -11l11 75v54h-54l-64 21
q-138 66 -258 65q-279 -29 -375 -204zM1234 338q-55 14 -75 65q48 31 96 43q133 -15 -21 -108zM1127 274q-256 -67 -65 86q63 -19 65 -86zM65 156v-75q438 -263 729 43l22 86l-33 10l-21 11l-54 11q-148 57 -236 75q-244 -28 -407 -161zM1491 167q3 -61 32 -108
q587 -240 719 151v10v-10v10h-32l-22 11q-197 85 -354 86q-210 -49 -343 -150zM2038 242q-33 -75 -86 -118q-119 84 33 118h53zM612 231q-75 -177 -161 -32l21 11l65 21h75zM429 70q-265 -75 -64 86q48 -38 64 -86zM1770 49q-138 -1 11 107q135 -58 -11 -107zM1009 6
q-62 -6 -108 -22h-32q-28 -11 -53 -10l-43 -11q-76 -19 -129 -22l-150 -43q19 -80 53 -139q525 -287 1041 -118h43l32 11l204 43q28 35 64 53v32l-32 22l-22 21l-107 75q-102 13 -172 54h-42l-33 11h-32l-118 21l-86 22q-75 2 -128 21h-108zM1513 -284v-43q-406 2 -644 247
q372 -18 644 -204z" />
    <glyph glyph-name="S" unicode="S" horiz-adv-x="2290" 
d="M346 1722q18 -61 21 -108v-64l-10 -33v-43l-22 -118l-11 -75l-11 -76l-21 -236l-118 -129q51 -97 129 -151q3 -87 -11 -151q5 -113 -11 -182v-44l-11 -64l-10 -43v-86l-33 -269q-87 -141 -204 -215v-54q284 142 441 355q235 76 366 247q301 -51 172 -225
q-145 -156 -323 -162l-11 -32q335 -70 571 129q103 -58 107 -172h33q46 60 107 86q-28 141 -150 204q33 135 96 226q172 -222 409 -290l11 -22q60 -53 86 -97l32 -10l11 -22q150 -133 269 -193q41 -7 43 32q-77 48 -108 107q-66 45 -96 97l-11 22v43l-11 21v33
q-26 125 -21 215q-13 10 -11 21v86q-13 11 -11 22q-30 253 0 419q57 63 108 97q-39 72 -76 108v43v43v43l11 43l-11 43v150v33v53q-37 127 -32 237q-57 57 -75 108h-183q-88 42 -118 118h-44q-14 -57 -32 -86q30 -168 0 -301l-21 -54v-108l-11 -32v-75l-11 -32
q-1 -82 -11 -130l-10 -75l10 -118q-10 -18 -32 -22l-43 33v64v118l11 33v86v32v43v32v33q-16 72 -11 129q-15 186 -107 312q-202 -42 -291 107l-43 11l-32 -54q-15 -86 10 -150l11 -54l-11 -32l-10 -43v-33l-33 -161q-33 -280 -32 -452q-52 -21 -86 -43v32l11 33v32l11 32
v32v119v107v33v43v43v32l-22 75l-21 194q-51 44 -65 97q-221 -38 -333 118q-43 -64 -54 -118zM615 1560v-32l21 -86q5 -207 0 -333q1 -148 -21 -248h-119l-10 32v43v76l21 193l11 86q10 167 54 280zM1228 1560q80 -502 -54 -914q-25 -22 -43 0l-11 86v32l-10 33v333l10 32
v33v32v43q14 74 33 118l21 183zM1830 1560v-32q35 -69 33 -129v-355l-33 -172l-43 -11l-75 11v107v33v32v43l22 183v43l10 32l43 226zM937 678q34 -161 108 -269h32q105 91 259 86l10 22l11 32q35 73 43 129l75 -21q43 -46 65 -86q-99 -99 -108 -215q-192 -67 -301 -205
q-88 22 -151 65q-154 37 -107 215q-171 160 21 258zM572 463q197 -277 -108 -419v43v32v75q2 82 11 129v108l43 32h54zM1820 463q102 -677 -172 -215q4 127 75 215h97z" />
    <glyph glyph-name="T" unicode="T" horiz-adv-x="2294" 
d="M207 1803q127 -48 201 -138q13 -79 10 -137q3 -87 0 -148q7 -126 0 -179l11 -63l-11 -96q26 -136 0 -242q-53 -32 -74 -74q19 -11 22 -21l21 -11q59 -104 147 -158q150 33 169 169q195 -17 127 -169q-102 -8 -179 -43l-169 -74q-37 -42 -85 -52l-95 84q-39 275 -306 243
q-2 -303 338 -380l32 -53q72 -38 116 -95q40 -6 74 0q278 310 295 158q-112 -86 -169 -179q264 -180 137 -454q-122 64 -126 296q-322 -128 -116 -402q606 -77 485 792q95 12 159 -31l52 10q-191 209 -42 327q148 30 264 0q62 -38 116 -52l138 -64l95 -52l31 -22l32 -10
l32 -21l31 -21l32 -11l137 -53l32 -10l21 -11q52 -30 95 -42q-17 38 -42 53l-42 10l-32 21l-21 21q-60 17 -95 53h-32l-42 21l-32 22l-32 21l-31 21l-74 42q-44 18 -74 53q-100 39 -158 95l-21 10l-117 32q-74 30 -126 42l10 127l-84 63l-21 11q-136 69 -211 137
q170 206 411 254l-10 21l-11 21q-22 34 -32 63q-64 47 -95 95q-482 -204 -791 127q-130 24 -212 95h-52zM724 1264l-31 11q-4 97 10 169q254 -25 21 -180zM693 863q-8 161 10 264q270 -129 -10 -264zM1442 -309q53 -22 95 -21q529 115 549 454q-31 50 -42 84q-52 9 -84 32
l-21 21l-22 32l-21 10l-21 11l-148 105h-31h-127q-763 -300 -127 -728zM1706 29l-21 -11q-112 -89 -221 -116l-74 -10v63q160 181 348 253q148 -13 -32 -179z" />
    <glyph glyph-name="U" unicode="U" horiz-adv-x="2069" 
d="M1041 1819l-32 -11h-85q-64 -21 -117 -21l-75 -21h-32q-58 -31 -127 -32q-85 -51 -149 -64l-107 -96l22 -64q771 -292 1351 53q51 86 43 171h-75l-53 10l-32 11h-43l-32 11l-32 10l-31 11h-54l-85 21q-127 34 -223 32zM1371 1723q-235 -236 -617 -255l-11 53l21 21
l107 53l32 22l42 10q53 22 85 43l32 10h32l170 54q61 2 107 -11zM871 1319l-117 -22l-32 -10l-32 -11h-32q-64 -21 -117 -21q-81 -41 -160 -43q-32 -22 -32 -53q49 -12 85 0h32l22 11h31h32h32q11 12 22 10h32h31h32h128l75 -10l117 -11q3 -187 -43 -319l-11 -43l-10 -74
q-4 -60 -22 -106l-21 -86q-21 -205 -21 -329q31 -52 32 -96q70 -67 96 -138l32 -22l95 -117q70 -41 107 -74l212 -181h54v53l-54 64q-210 164 -308 362v32q-20 147 0 255l11 85l31 170l11 32l43 181v32l10 21v32q30 144 22 245q358 -13 606 170q-112 8 -191 -32l-181 11
q-84 27 -149 32h-32q-189 44 -319 32q-82 -34 -149 -32zM51 872q406 -260 745 21v43l11 64q-206 97 -383 106q-372 -49 -373 -234zM1318 946l21 -95q649 -251 734 149v10v-10v10q-223 99 -436 96q-200 -44 -319 -160zM1775 914q-110 80 32 117q137 -11 -32 -117zM594 1021
q-67 -175 -149 -32l21 11l64 21h64zM1605 840q-131 -8 10 106q119 -63 -10 -106zM264 829q16 67 64 107q203 -77 -64 -107zM1318 500q12 -53 31 -86q563 -241 724 117v54q-228 80 -372 95q-246 -30 -383 -180zM264 351q275 -125 532 106v32q15 43 11 85q-246 99 -436 96
q-591 -189 -107 -319zM583 531l-74 -53q-110 73 32 117q70 3 42 -64zM1871 595q-59 -171 -160 -42l85 42h75zM413 425q-244 -75 -64 85q60 -26 64 -85zM1626 414q-144 -28 -21 96q143 -38 21 -96zM51 74q3 -55 11 -85q484 -263 745 74v75l-43 10l-74 32l-22 11l-74 21
q-89 33 -160 32q-234 -35 -383 -170zM1328 85q1 -62 21 -107q144 -30 235 -95q466 -38 489 265l-43 11l-244 85h-128q-204 -46 -330 -159zM530 63q-66 -28 -85 54q63 28 117 42q81 -43 -32 -96zM1796 63q-57 5 -85 54q48 31 96 42q123 -14 -11 -96zM1541 -32q26 76 85 117
q136 -104 -85 -117zM413 -11q-249 -69 -64 85q63 -23 64 -85z" />
    <glyph glyph-name="V" unicode="V" horiz-adv-x="2254" 
d="M1725 1787q177 -129 107 -492q-182 138 -11 342q-128 -29 -202 -117q-133 -278 309 -492l11 22q493 326 128 576h-75q156 -178 0 -331l-10 32l-11 182q13 84 0 160q-108 129 -246 171v-53zM486.5 1795q-10.5 -9 -21.5 -8q-73 -76 -128 -118v-32l-11 -75q13 -10 11 -21
v-246q-193 131 -32 331l-75 -10q-178 -122 -139 -310q17 -14 22 -32q44 -33 64 -75q126 -65 203 -171h42l32 11l11 21q101 103 182 150l96 128q0 90 -22 160q-287 229 -192 75q118 -188 -53 -288q-52 415 107 502q-5 52 -54 42q-32 -25 -42.5 -34zM775 1434v-75
q476 -279 769 54v85q-19 11 -22 22q-16 -7 -32 0l-32 10q-44 14 -74 32h-32l-161 43q-252 -22 -416 -171zM1266 1424q-72 -21 -85 53q71 32 128 43q25 -66 -43 -96zM1138 1349q-232 -64 -64 75q62 -17 64 -75zM775 932q479 -292 758 32q17 60 11 107q-27 2 -43 11l-32 10
h-32l-21 11q-147 56 -257 64q-350 -42 -384 -235zM1651 1082q6 -117 -22 -203q-169 5 -235 -128q221 -15 331 -160q-93 -197 -288 -246l-21 -32v-32l32 -11q9 -17 21 -21l171 -128v-43q-291 -56 -470 -224l-43 10l-21 22q-43 37 -85 53l-33 21l-149 86q-224 8 -128 107
l53 42q91 51 139 118l-53 53q-258 42 -257 278q61 26 107 32l11 32q119 16 203 64q-103 118 -235 107q-33 99 -22 181l-21 64h-43q-30 -99 -96 -149l-43 -75l11 -53q81 2 128 -43l-74 -43h-43h-43h-192l-64 -85q-17 -54 -22 -96q337 -100 374 -288l-21 -22l-21 -11
q-41 -41 -75 -64l-43 -10l-21 -22l-32 -21l-86 -21q-94 -60 -181 -64l-11 -32l64 -54q53 -89 96 -139q403 190 748 11q147 -40 75 -128q-83 -66 -171 -86l-11 -42l21 -11q171 55 267 107h54q159 -85 299 -96l-11 32q-137 52 -214 149q365 290 865 75q62 117 150 182l-21 42
q-273 54 -470 225v64q173 169 363 224l-11 96q-42 38 -53 85l-64 11q-169 -22 -299 32q60 53 128 54v53l-11 21l-21 11q-59 124 -128 192zM1245 975q-46 22 -64 64l106 43q102 -37 -42 -107zM999 890q23 62 64 96q188 -68 -64 -96zM807 452q83 -8 149 -54q360 -111 588 128
v107l-118 32q-137 59 -245 64q-469 -52 -374 -277zM1266 548q-56 2 -85 53l96 43q110 -17 -11 -96zM1149 484q-244 -74 -64 74q57 -23 64 -74z" />
    <glyph glyph-name="W" unicode="W" horiz-adv-x="2164" 
d="M770 1564l-33 -21q-37 -65 -75 -98l-33 -32q-54 -33 -86 -65l-44 -11l-10 -32l-33 -11l-32 -22l-22 -32l-22 -11l-21 -22l-65 -43q-37 -51 -76 -76v-32l-43 -65q-13 -62 -33 -108l-65 -206l-11 -33q-10 -166 -32 -270q86 -218 271 -325q721 -525 1039 184q-5 126 -33 217
q-268 318 -638 324q-11 -19 -22 -21l-11 -33q-78 -78 -108 -173q-44 -51 -54 -97l75 -33q230 38 390 -108q191 -74 119 -238q-388 4 -638 238q-377 201 -130 498l151 108h33q59 48 108 54q398 381 281 866h-43q5 -155 -54 -271zM856 1132q109 -447 661 -498l54 65
q80 160 162 249q-82 69 -173 32q-336 42 -465 314l43 54q370 -10 617 -227q253 -127 249 -401l-11 -21q-63 -56 -98 -98l-32 -11l-22 -21l-32 -11q-127 -106 -249 -141q-326 -395 -227 -844l43 11q-2 211 108 346l33 22l21 32l33 11l32 33q63 53 108 75l22 22l22 22l97 54
q11 19 22 21q63 85 119 130l21 87l22 21l11 33q63 196 76 325q43 128 43 227q-265 491 -790 541q-457 -48 -520 -454z" />
    <glyph glyph-name="X" unicode="X" horiz-adv-x="2279" 
d="M1728 1834l-31 -10q-50 -26 -84 -32l-73 -10q-79 -51 -148 -52q-13 -37 -52 -42q-59 -53 -105 -74q-44 -81 -95 -126l-31 10l-31 22l-42 20h-32l-10 22q-85 13 -158 52q-55 34 -105 32q-82 63 -179 42v-42l137 -64l21 -20l32 -22q98 -44 157 -104q88 -26 147 -64
q-40 -125 -136 -178q-169 -283 -484 -242l-10 -52q171 -72 326 -42q-9 -65 52 -74v-31h-32l-52 42l-84 21h-136l-74 21q-58 70 -136 84q-61 -84 -106 -126l11 -42l31 -21l116 -105q150 -88 231 -189q200 -273 -105 -420v116v31l10 21q-12 101 11 189l-31 11q-88 71 -168 94
v-158q-4 -34 -11 -94q3 -107 -21 -178q2 -136 -21 -221q-98 -145 -210 -221v-31h53l20 21h32l32 32l20 20l22 11q68 67 126 95q52 71 104 115q38 43 74 63q220 69 336 242q275 -52 136 -210q-130 -159 -314 -158v-32q336 -90 577 126q79 -83 84 -178q102 29 168 105
q-51 135 -168 189l11 32q10 17 31 20q6 100 53 158q31 -50 31 -94q70 -35 95 -95h31q115 -98 241 -126l32 -73q27 -3 42 -11l10 -21l64 -42q43 -53 94 -74q76 -86 168 -115l42 21q-330 272 -252 682q-50 122 -21 221l-42 21q-68 -83 -147 -126v-147q8 -96 -10 -168
q16 -29 20 -53q-432 294 221 672l63 95q-12 11 -10 21q-39 40 -53 84l-73 42q-128 -117 -284 -116q-67 -29 -126 -20q-13 -44 -52 -53q-2 62 62 73q43 98 137 126q8 49 21 84q-18 11 -21 22l-21 20l-10 32q-19 10 -22 21q-18 11 -20 21l-22 10l-136 116q85 324 304 514
q10 30 -10 53q-16 -12 -32 -11zM1456 932q-147 -54 -242 -137q-64 -35 -94 -84q-118 32 -190 105l-20 10q-76 4 -126 22v10v-10v10q336 49 546 242q93 -77 126 -168zM1434 826l32 22q31 -118 -32 -22zM888 459q-52 -58 -126 84q80 91 179 126q188 -72 -53 -210zM1508 554
q-28 -115 -105 -42q-96 54 -42 136q92 -32 147 -94zM1172 249q-38 -108 -147 -63l11 32q-63 -12 -95 31q-71 1 -63 63q203 12 346 136q172 -129 -52 -199z" />
    <glyph glyph-name="Y" unicode="Y" horiz-adv-x="2171" 
d="M817 1622l-32 -22l-21 -32l-32 -10q-11 -19 -21 -21q-78 -75 -149 -107q-40 -72 -96 -106v-32q-95 -184 -106 -340q-72 -344 361 -415q471 -24 479 425q-332 385 -489 64q-44 -61 -64 -106q18 -11 21 -22q395 70 362 -170q-526 -55 -564 341q39 48 85 74q470 297 362 702
h-22h22h-22q-12 -137 -74 -223zM1530 952q-350 -290 -362 -681l85 -64l32 -11l21 -21l192 -106q35 124 10 234q110 386 372 436l54 -53q-20 -391 -234 -660q-163 -303 -479 -276q-113 98 -170 170q-295 688 -1021 553l21 -43q160 7 277 -64l32 -31l32 -22q37 -47 74 -74
l32 -32l21 -32l11 -32l42 -32l43 -85l32 -21l21 -21l11 -32l10 -22l22 -10l10 -22q71 -53 107 -106l32 -11q125 -47 191 -85q27 -2 43 -10h31l32 -11l32 -11l43 -10l21 -11q51 -10 85 -10l75 -11l31 -21q73 7 128 -11q67 37 128 43q10 18 21 21l64 42q56 88 117 139l21 32
l96 148q353 584 -181 937q-112 27 -191 31q-64 -28 -117 -31z" />
    <glyph glyph-name="Z" unicode="Z" horiz-adv-x="2340" 
d="M1411 1808q-64 -17 -117 -21q-83 -35 -159 -42q-106 -61 -211 -64q-82 -88 -159 -127q-96 -105 -191 -148q-61 -75 -137 -106q28 -92 116 -127q608 -13 995 402l21 11q54 36 96 53q41 65 84 95l11 64q-105 44 -201 42q-86 -26 -148 -32zM1421 1522l-21 -10
q-61 -27 -116 -32q-11 -12 -22 -10l-21 -11h-31q-188 -54 -329 -42q-310 56 254 158q221 36 286 -53zM1389 1353l-31 -32l-53 -21q-59 -36 -106 -53l-11 -21l-21 -10l-127 -75q-73 -78 -159 -105l-10 -22l-222 -116q-262 0 -445 159q-84 41 -138 106l-42 -22q19 -10 21 -21
l159 -148l21 -10l244 -159q178 -99 338 -117l11 -21q36 -59 53 -106q53 -43 74 -95l21 -11q53 -74 106 -116l-95 11l-32 10l-148 43l-21 10q-78 6 -138 21q-106 18 -180 11l-74 -32l-11 -21l-10 -21l-21 -11q-163 -212 -223 -381l21 11q97 196 254 286q122 -3 212 -22
l32 -10l32 -11l31 -10l32 -11l32 -11h32q123 -48 222 -52v-53l-21 -22l-21 -31l-11 -64l-10 -42q-47 -145 -64 -244q19 -10 21 -21q129 -41 201 -95l64 11q2 326 233 476q47 -151 -11 -286l11 -74q54 -30 84 -53q87 -22 149 -21l42 -11h42h117l74 -10h42l265 -21l95 31
q-60 40 -127 43q-593 -51 -413 370l-21 127q-19 11 -21 21l-32 21q-115 48 -201 53v32l21 21l42 64q18 9 22 21l74 95q431 69 624 424v148q-35 47 -42 95q-278 257 -593 275zM1929 898q-73 9 -74 95q-229 -54 -307 127l21 11l32 21l117 32q91 48 169 63q374 -43 42 -349z
M1506 1078q107 -203 286 -275q-95 -74 -191 -85q-109 -55 -116 74q-190 -41 -307 85q23 40 63 53q11 12 21 10q42 44 75 64q77 35 127 74h42zM1146 845l21 -10q116 -188 275 -276q-47 -115 -137 -169q-87 -23 -106 127q-243 -37 -349 159l21 32q63 21 106 63q79 34 127 74
h42z" />
    <glyph glyph-name="a" unicode="a" horiz-adv-x="2211" 
d="M439 1663l-73 -11l-11 -31q-39 -121 -73 -188q49 -146 94 -230h31l63 -42q18 -10 21 -21q114 -41 178 -94q-98 -42 -220 31l-21 -31l-10 -21q-43 -40 -84 -63l-94 -146q-5 -62 -31 -115l-11 -52v-136l-10 -42v-648l-21 -21l-11 -31l-10 -21l-11 -21q-69 -89 -125 -126
v-31q73 21 125 63l21 31l32 11l21 31l21 21l21 21l52 52q62 91 115 146q603 265 251 732v52q79 94 178 136q-34 83 -32 157h32h41h32l31 -10h42h31l32 -11h31h42q162 23 261 21q-5 -94 -41 -157q112 -49 177 -136v-52q-342 -491 272 -732q172 -253 408 -366l-42 63
q-105 98 -146 209v209v63v52v63v42v31v32v73l-11 125v105q-37 82 -42 157q-33 41 -41 83q-13 11 -11 21q-108 83 -157 167q-211 -79 -230 -20q78 59 147 73q59 65 136 73l10 21q41 125 84 198l-11 42l-21 21l-10 42l-42 115l-52 10l-21 21l-94 73l-73 21q-65 18 -115 42h-32
l-31 11h-32l-31 10h-31l-74 11l-31 10h-84h-31h-136q-322 -33 -512 -188zM1024 1600q-120 -77 -136 -199l21 -10l11 -21q66 -56 104 -115q-1070 137 -136 345h136zM1453 1286h-31h-42q-163 -29 -262 -31q116 84 147 199q-72 76 -105 146q985 -102 293 -314zM1181 1485
l-21 -10q-43 -67 -83 -94q-212 -37 52 125zM1003 638q-234 -244 -62 -418l10 -83q-31 -130 -125 -199q7 -259 209 -63l42 -10q36 -112 146 -126v126q-68 56 -146 73q-2 183 -84 324q58 144 125 230h63v-73q-84 -167 -83 -324l20 -11q178 -237 408 -345l-10 32l-52 41
q-125 83 -189 178l-10 52v32q19 84 21 136q61 164 52 313l-31 21q-53 71 -105 115q104 159 -42 303h-125q-243 -129 -32 -324zM1139 795q-62 -49 -104 -73q-129 9 94 146q85 -7 10 -73zM1819 638v-41q9 -60 0 -115q12 -16 11 -32v-73v-167q4 -97 -11 -168q-419 258 -21 617
q19 -7 21 -21zM418 32l-42 10v42v32v41q2 64 -10 115l10 42v32v73v31v32q-4 96 10 167q381 -293 32 -617z" />
    <glyph glyph-name="b" unicode="b" horiz-adv-x="2051" 
d="M1389 1827l-42 -11l-21 -21h-32q-10 -12 -21 -10q-122 -82 -210 -116q-50 -67 -95 -105q-46 -142 -32 -253q13 -10 11 -21q105 -40 158 -115q93 -46 147 -106q371 24 516 369l-32 126l-31 21l-32 31l-52 64l-64 52l-84 95l-63 21zM389 1743l-73 -32q-75 -65 -148 -84
l-95 -116q-37 -117 -31 -210l21 -32l21 -42l63 -21l32 -21q99 -108 179 -158q377 24 515 369v31l-31 74l-53 73q-20 7 -21 21q-18 11 -21 21q-34 24 -53 53q-86 67 -136 137h-53q-52 -49 -116 -63zM1557 1627q-33 -249 -368 -347q-91 7 -21 105q48 66 95 105
q144 100 252 137h42zM663 1574q-85 -289 -379 -336q-27 2 -42 10q127 265 389 337zM705 1090q-186 -233 -442 -252q-29 108 -74 179q-37 -128 11 -232q121 -113 263 -126q49 32 84 42q250 385 621 179q27 -2 42 -11q96 -37 168 -42q-134 -123 -484 -52q-119 -55 -189 -116
l10 -53q167 77 316 63q571 -335 842 285v10v-10v10l-137 116q-135 -192 -305 -32q-64 -13 -31 -126q-199 45 -327 168q-51 8 -84 42q-87 24 -147 21q-78 -43 -137 -63zM1968 585l-105 -31l-43 -11q-74 -30 -126 -42q-16 -12 -31 -10q-46 -33 -85 -43l-221 -105
q-81 -100 -157 -147l-11 -42l-21 -11l-11 -31l-94 -169l-32 -10q-67 -102 -158 -148h-42h-31h-42h-190q-246 204 -200 495q383 59 295 -347q18 -11 21 -21h31q11 18 21 21l32 10l11 21l31 11l74 63q103 52 158 116q0 40 21 63q-27 74 -32 126q-70 85 -105 158
q-293 150 -526 -32q-439 -219 -348 -662q262 -376 716 -148h32l31 21h32l21 21h31q47 36 95 42q41 37 84 42q41 37 84 53l32 11l32 10q47 60 105 84l21 42l32 32l10 32l21 31l21 21l11 21q60 119 126 190q201 183 431 231q71 39 -10 63z" />
    <glyph glyph-name="c" unicode="c" horiz-adv-x="2198" 
d="M743 1809q-407 -75 -682 -315q-64 -176 -10 -325l132 -31l21 -20l30 -10q57 -52 112 -72l30 -20l61 -41q76 -33 122 -71h133l-10 -71l-123 -244q133 -52 92 -193q238 44 366 223q120 -7 204 -81l-21 -30l-30 -21h-31q-95 -58 -173 -81l-10 -21q-86 -28 -142 -61l-10 -30
l-31 -20l-30 -41l-21 -31l-20 -20q-10 -18 -20 -20l-11 -31l-20 -30q-35 -45 -51 -82l-10 -20l-20 -20l-11 -21q-45 -96 -91 -152v-61l51 51l30 30l10 31l31 20l10 20l10 21l11 20q10 17 20 20l71 102l132 71q89 14 153 41q10 12 20 10l20 20l143 92q24 33 61 51
q38 50 81 81q47 -32 61 -81h61q95 136 224 203v71q-274 117 -203 367h71q354 -18 417 -326q70 -272 -265 -336l-30 -10l-20 -20l-41 -10q-10 -12 -20 -10l-21 -21h-30q-75 -60 -153 -81l-30 -41l-21 -30q-43 -39 -71 -72l-10 -30l-20 -10q-33 -78 -72 -122l-20 -31
q-55 -116 -112 -183v-71q41 41 61 81l31 11l10 20l10 20l10 21l21 20q19 38 50 61q29 62 72 102q51 15 91 50l92 11q376 187 569 498q389 434 -122 773h-30q-139 42 -244 30l-41 -30l-31 -10l-10 -21l-30 -20l-21 -20l-30 -21l-132 -101q-11 -60 -31 -102q-88 12 -152 41
l-31 61l61 30q31 43 71 61l21 31l40 61q17 9 21 20q38 61 71 92l-41 162l-41 31l-30 20l-41 31l-30 20l-31 31l-30 10l-31 30l-20 21l-61 50q-86 41 -132 92h-31h-122zM814 1240q8 91 40 152q-141 22 -233 92l71 20l20 21l41 10q156 5 254 30q42 -243 -193 -325zM621 1464
l-21 -21q-28 -90 -91 -142v-31q119 -12 193 -71q-148 -88 -265 0q6 193 163 275z" />
    <glyph glyph-name="d" unicode="d" 
d="M299 1603q89 -40 131 -119l11 -33q12 -11 11 -22l21 -11l98 -152q54 8 88 0l217 -76h44l33 -11h32l120 -11h33h43h33h33h108l98 11q309 26 523 196v32q-67 95 -98 175l-22 65q-48 66 -54 131q-79 9 -131 32l-54 -11h-55l-32 11q-55 1 -87 11h-44l-33 11h-152
q-57 1 -87 11h-33h-43h-33h-218q-332 -19 -501 -240zM963 1614h88h32h44h32l218 -21l76 -11l33 -11q121 -5 207 -33q-18 -52 -54 -76q-519 -118 -948 11l33 76h33q93 50 174 65h32zM1769 1146q-188 -170 -316 -11l-32 -207q116 -46 174 -130v-66q-348 -496 283 -751
q175 -261 414 -392v32q-112 105 -163 196q-20 102 -22 175v152v33v196v141v44v185v33v130l22 11q54 110 141 164q-17 157 -141 218q-138 -192 -360 -153zM114 1266q-69 -91 -98 -185q107 -74 163 -153l11 -87v-218q3 -87 0 -141l11 -33v-392q4 -127 -11 -218l-22 -32
l-21 -44l-22 -11q-41 -92 -109 -141v-33l152 87l11 33l33 11l22 32l22 33l32 11q85 128 153 196q618 253 272 740v77q68 94 163 119l11 22l-11 22l-32 174q-137 -159 -294 0q-248 -27 -371 153h-54zM1040 928q-4 -102 -22 -174q-224 -642 109 -1143l54 -44q136 190 142 392
q88 190 65 381q-24 458 -283 599q-34 -12 -65 -11zM1911 700v-327l11 -22v-33l-11 -32q18 -122 -11 -218q-406 286 -33 642zM495 101q-54 -26 -98 -33v87l-11 55l11 32v44l-11 87l11 22v87v218q387 -208 98 -599zM1094 536q176 -278 185 -566l-65 22q-172 280 -185 566z" />
    <glyph glyph-name="e" unicode="e" horiz-adv-x="2310" 
d="M770 1798q469 -177 668 -586q73 -77 94 -164q104 -112 128 -234q205 -265 47 -516q-101 -258 -328 -328q-448 -136 -738 176q-278 251 -270 598q208 192 411 0q231 -116 105 -328q-111 52 -176 105q-78 90 -164 141q99 -360 399 -492q11 13 23 11q12 14 24 12
q91 73 164 105l23 36l35 23l35 23q12 21 24 24q60 76 129 117q45 79 105 117v35q14 45 12 94q-36 37 -47 82l-47 35l-12 35q-59 39 -82 82l-35 12l-70 82q-81 55 -129 106q-675 -34 -996 -551q-92 -230 -82 -434q259 -494 738 -644l35 12l211 23q56 30 94 35l23 12l141 59
l82 35l12 23l35 12l141 82l23 12l23 23q75 29 118 70l47 12l35 35l35 12q48 59 105 82q12 20 24 23l23 24l24 23l175 141l12 35l24 12l105 152q-80 296 -270 480l-117 176l-47 24l-11 35l-59 58q-104 66 -164 141l-47 12l-12 35l-46 12l-24 35l-47 11q-57 36 -93 71l-82 47
l-36 23l-23 12l-47 11l-23 24l-36 12l-35 11l-23 12l-176 82h-117v-47z" />
    <glyph glyph-name="f" unicode="f" 
d="M1724 321q2 -101 -34 -165q-372 -410 -803 -177q-401 171 -496 551q-38 463 430 143q321 -222 77 -540l77 12l33 22l33 22l44 22l33 33l77 66l33 11l22 22l33 22l33 33l11 22l33 11q83 112 176 176q36 106 -33 176v66l33 44l77 143v33l33 33l11 55l22 22l11 33
q48 97 89 155v33l22 22v33l88 165l44 11l-88 121q-132 4 -232 -66l-88 77q-260 -41 -473 22q-61 -31 -110 -44q229 -212 121 -264q-302 -9 -507 -176q34 -151 111 -254q-461 -220 -650 -649q2 -72 11 -121q35 -83 44 -144q13 -11 11 -22q74 -102 99 -187l22 -11
q260 -257 562 -341l22 11h44l22 -11q89 32 154 22l44 11q85 51 165 55q49 37 99 44l44 22l99 55l99 44q71 57 144 77l33 33l44 33l44 11l22 22l33 11l11 22l22 11l44 11q11 20 22 22q35 23 66 33q57 74 121 100q28 58 66 88q-375 868 33 1497q-14 38 -44 44
q-603 -720 -495 -1519zM1602 1587q-24 -102 -88 -176q-73 -272 -330 -265q-228 -58 -308 133l66 33q89 5 154 0q83 -4 143 11q94 189 253 264h110z" />
    <glyph glyph-name="g" unicode="g" horiz-adv-x="2194" 
d="M626 1599q-334 -511 144 -770q195 -102 380 -51q28 70 71 113q14 66 52 102q24 97 71 154q-22 28 -41 41q-145 -53 -277 -41q-582 267 -174 390q309 17 534 -144q218 -71 277 -266q95 -309 -298 -513l-21 -21l-61 -21l-10 -30q-66 -37 -103 -82h-31q-74 19 -123 20
q-231 65 -421 41q-15 -11 -30 -10l-11 -21l-71 -41l-72 -41q-23 -37 -62 -51l-20 -31l-62 -51l-10 -31l-52 -62q-35 -33 -51 -61l-20 -10l-11 -21q-61 -84 -92 -144l41 11l51 61l72 62q10 17 21 20l61 52l11 20l195 134h82h30h31l41 -11l31 11l41 -21l21 10l71 -20
q112 -5 185 -31q-142 -345 -72 -667l31 10q-4 295 267 524q56 28 92 61h82h31h31h72h225q62 39 124 41q380 200 297 513q-71 106 -174 134q-134 -127 -288 -164l11 41v41l20 30l10 42l11 30q10 86 30 144l11 41l51 267q-12 10 -10 20l-41 134q-333 338 -760 359
q-276 -72 -441 -246zM2063 460q-119 -95 -247 -62q-122 -24 -225 0l10 21q10 11 21 10l10 20q34 100 72 154l123 21q253 1 236 -164z" />
    <glyph glyph-name="h" unicode="h" horiz-adv-x="2250" 
d="M2091 1750q-175 -97 -271 -240q-240 -88 -386 -271q-24 -122 -21 -199q31 -51 32 -93q158 -115 -94 -178q-52 194 -199 240q78 56 147 73l10 52h31q80 175 73 345q-53 56 -73 115q-48 50 -62 104q-175 226 -376 -146l10 -21q-42 -114 -31 -219q52 -58 63 -125
q70 -74 83 -178q56 14 84 11q-55 -72 -126 -94q-17 -85 -62 -146q-92 27 -146 83q57 113 115 177q-50 373 -418 449q-200 252 -438 334v-42q74 -46 104 -104q66 -40 94 -94q22 -84 21 -146l21 -177q18 -114 10 -188l21 -84q-3 -66 0 -115q16 -60 11 -104q-70 -79 -125 -125
l10 -42l115 -115q159 139 354 115q25 22 53 31q-102 -129 -230 -187q-41 -44 -83 -63q-301 -485 -84 -678q313 -186 616 -94v31l21 -10l10 20l52 21q37 76 94 115l-10 31h31v63q36 -60 52 -104q12 -11 11 -21q62 -52 104 -125q332 -112 616 31v31l62 11l-10 31l52 21
q7 56 31 104v42q-12 16 -10 31l-11 32q-18 62 -21 114q-44 80 -52 157q-47 62 -62 125q-55 31 -84 73q-155 69 -250 188q50 -8 104 -31q171 16 251 -94l62 -11l11 11l20 10q24 77 84 105q-46 100 -125 146l-11 41l11 53l10 135v115q20 78 11 136l20 41l-10 21l21 42l-11 21
l11 21q-3 133 31 229l21 11q74 111 167 167l-10 42l-42 10q-73 -56 -105 -94zM1173 1374q-46 -102 -146 -114q64 185 209 281q25 -102 -63 -167zM506 926l-11 31v31l-10 32v31q-15 104 -11 177q-20 83 -10 157q361 -205 42 -459zM1810 1374v-31l10 -31l-10 -52
q-1 -107 -21 -178q6 -84 -11 -146q-274 217 0 438h32zM1017 466q72 197 229 293q-17 -231 -229 -293zM1445 477q28 -53 31 -94q51 -21 52 -73q16 7 31 0l21 -31l52 -42q55 -15 84 -42l21 -21q69 -37 94 -94q26 -2 41 -10q-24 -200 -219 -219q-145 -73 -292 -42v31
q33 -1 52 42q137 60 251 21q54 -6 83 52q-68 158 -156 251q-82 -22 -157 0q-6 -20 -21 -21l-62 -11q-16 -11 -32 -10q-79 -87 -156 -125l-11 -84q-87 197 -271 219q-244 78 -344 -229l62 -42q208 61 334 -84q-302 -49 -511 136q-16 81 10 146q67 46 105 84q254 116 334 355
q127 -146 167 -303q332 -10 375 323q26 -42 32 -83z" />
    <glyph glyph-name="i" unicode="i" horiz-adv-x="2234" 
d="M695 1523q118 -47 194 -122q-39 -84 -102 -132q-134 71 -203 173q-346 29 -550 -193q-7 -74 0 -122l92 -31q299 -307 610 -10q71 -37 112 -82l-20 -40l-21 -10q-54 -49 -101 -62l-163 -162l10 -163q39 -60 41 -112q29 -56 30 -102q97 -167 92 -336l-31 -71l-40 -30
l-31 -21l-41 -30l-30 -21l-31 -20l-20 -20l-31 -10l-40 -21q-41 -40 -92 -51q-86 -77 -183 -101l-10 -31q60 -7 102 10q41 32 81 41l81 41h31q107 74 203 101l61 41q77 64 143 81q33 42 71 51q68 82 132 122q18 37 41 61v72l-51 173q-74 105 -91 193l-41 71v72
q218 35 366 -296q40 -47 51 -91q-434 -468 163 -672q101 1 173 31q64 105 51 203q-212 85 -305 255q1 88 30 152q127 35 112 143q34 44 61 61q-66 289 -305 407v41l20 10q85 98 194 142l50 -10q201 -224 448 -102q199 69 224 255q-140 96 -214 203q-321 16 -529 -163
l-183 92l-10 20q149 90 163 244l-31 11q-117 137 -244 193q-513 -24 -489 -326zM1286 1707q-114 -185 -316 -214q-154 -34 -20 102q151 79 254 112h82zM2059 1310q-157 -222 -407 -214q120 201 366 224zM624 1310q-116 -198 -336 -224q-131 -1 21 122l20 10l71 31
q11 12 21 10q75 35 132 51h71zM1316 1055q-258 33 -417 204l10 30q312 -12 407 -234z" />
    <glyph glyph-name="j" unicode="j" horiz-adv-x="2244" 
d="M1389 1626v-105l63 -41q58 -57 83 -115l73 -42q248 21 324 240l11 73q-107 101 -157 209h-94q-219 -40 -303 -219zM282 1532q103 -81 146 -167q53 -26 84 -53q223 34 313 220q11 53 11 94l-21 21l-42 62q-64 58 -94 126h-125q-267 -65 -272 -303zM1817 1688
q-99 -188 -292 -219q78 192 261 240zM710 1688q-98 -201 -303 -219q93 178 262 230zM857 1302q-14 -83 -11 -146q102 -70 136 -157q336 -135 418 261q-45 42 -63 94q-71 49 -94 115h-146q-158 -54 -240 -167zM1264 1333q-83 -215 -293 -229q81 171 241 229h52zM1201 592
q55 -112 52 -209q52 -14 84 -42q15 -121 10 -209q-49 -88 -115 -135l-10 -21q-48 -32 -73 -63q-284 137 -219 439l83 42q-2 102 42 177v42q-38 105 -52 177q-149 283 -428 334l-32 -31l-31 -21q-11 -18 -21 -21q-10 -18 -21 -21q-79 -126 -177 -198q14 -66 0 -115l10 -31
l10 -94q41 -89 42 -167q81 -228 63 -428l-52 -84l-32 -31l-21 -31l-31 -11l-21 -31l-21 -21l-52 -52q-107 -71 -167 -157l52 10q46 39 94 53l11 21l21 20l73 32q55 65 125 94l10 21q11 18 21 21l21 20l11 21l31 11q59 82 115 125l10 21l73 125l-10 146q-12 16 -10 32
l-42 104l-11 42l-10 73q-47 101 -52 188l21 42q216 -89 282 -439q-127 -169 -147 -344q17 -122 63 -209q218 -260 365 -42q143 -252 387 94q69 295 -115 501v52l21 11q58 239 219 386l63 -21v-52l-11 -31l-10 -42l-10 -42l-84 -261v-31q-19 -99 -10 -167q12 -11 10 -21
l104 -157l32 -31l42 -31l31 -21l10 -21l105 -94q52 -34 83 -63q114 -66 178 -125l73 -11l-10 32q-93 58 -147 125q-172 119 -250 272v135v32l10 21l11 104q38 105 41 188q67 184 42 345l-21 20l-10 21l-21 11q-112 162 -251 240q-384 -162 -449 -543z" />
    <glyph glyph-name="k" unicode="k" horiz-adv-x="1988" 
d="M1041 1618q144 -139 162 -302h-43q-55 23 -87 43q-85 5 -151 32h-32l-86 22l-33 10h-43q-127 39 -226 33q-336 -168 -432 -529q-222 -668 529 -927q120 -2 205 21q376 246 334 658q-19 11 -22 22l-75 43q-67 25 -108 65q-111 27 -183 97l-43 -22v-108q102 -238 -97 -464
q-344 -255 -270 281q128 715 647 669q256 -177 367 -432q60 -54 86 -118q-278 -213 -313 -529q-71 -196 -21 -367q590 -521 863 97q84 346 -346 410v119q11 64 11 108q380 1053 -356 1294q-185 -64 -237 -226zM1526 1164q-51 17 -75 54q-179 31 -151 205q-9 169 108 259
q170 -36 118 -518zM1408 32q339 60 420 -183q-335 -119 -571 161q-90 280 183 400q162 -87 -32 -378z" />
    <glyph glyph-name="l" unicode="l" horiz-adv-x="2205" 
d="M374 1699q-34 -112 -120 -163v-120l22 -22q53 -125 130 -196l-21 -32l32 11q133 -95 251 -120q201 36 283 207q199 114 108 326q-234 284 -576 250q-33 -98 -109 -141zM776 1481q83 -88 98 -196q-359 51 -413 349q190 -48 315 -153zM374 981l-22 -33l-33 -11l-21 -22
l-33 -10l-11 -22l-33 -11q-68 -83 -130 -120q-180 -530 185 -903q139 -200 348 -272h33l109 22h32q60 26 109 32h33h32l44 22q88 32 152 33q64 50 142 54q37 39 76 44l32 43l44 33l22 22q63 87 119 130q113 230 294 359l11 22q151 70 294 54q-19 67 -131 66
q-341 -2 -598 -163q-84 -69 -131 -120l-65 -65q-36 -104 -87 -164q-76 -170 -196 -261q-248 -21 -392 142q-348 361 -348 816l76 43q409 -218 359 -674h33q80 75 163 98q55 43 109 65q23 41 54 65q-68 464 -435 686h-32q-81 11 -131 11q-39 -12 -76 -11z" />
    <glyph glyph-name="m" unicode="m" horiz-adv-x="2374" 
d="M997 1756q39 -144 23 -281q-182 -638 67 -1126q54 13 68 56q144 5 236 34l79 180v34v33l11 23v34q22 84 23 146l11 34v79l11 67q-13 67 0 124l-11 34v34v45l-11 112q-29 89 -23 169q-49 68 -67 124q-238 -25 -360 135q-30 -57 -57 -90zM1639 1733q31 -144 11 -258
q-131 -540 0 -1014q56 -62 79 -112q110 83 236 67l57 34q23 57 56 90l11 34v34l12 33v34l22 90l23 135v45v45v192v34v135l-12 33v34l-22 180q-56 65 -79 124q-221 -27 -349 124q-32 -60 -45 -113zM389 1542l-11 -22q-46 -204 -45 -338q-95 -473 113 -833q55 19 79 56
q134 -1 236 45l11 45q49 104 68 180v34l11 90l11 34v34v33q11 54 12 90v34v34v34v34v135l-12 67v34v45q-27 110 -22 191l-45 68l-57 56q-201 -42 -303 113h-34q-58 -144 -12 -293zM1875 1576l34 -11v-34q29 -80 34 -135v-124q3 -91 -11 -158v-67l-12 -180l-11 -68
q-9 -119 -45 -203l-45 -11v34l-22 146v79v124v124v45l11 45v90q38 176 45 281zM637 1542l34 -180v-248q-15 -73 -11 -124l-12 -67l-11 -68v-90l-45 -180l-34 -11l-33 56l-12 214v34v34v33v34v34q-2 64 12 113v33v34v45l11 23v45l56 259q29 -7 45 -23zM1301 1508v-33l12 -91
v-213v-34q2 -68 -12 -124v-113l-33 -191q-21 -55 -23 -101l-45 -34q-109 533 34 991q48 -17 67 -57zM1808 180q-408 -61 -518 146q-77 -34 -146 0l-34 -11q-62 -95 -124 -135h-56h-147h-45h-123l-34 -11l-34 11q-200 -28 -338 0q-100 69 -146 158l-45 -12q100 -221 281 -349
q222 -565 563 -259q119 -37 147 -146q87 34 157 34q-19 55 -56 90v45q82 173 79 326h34l11 -67v-90q57 -133 67 -225q-39 -33 -56 -68l169 -45q26 101 90 158q430 -293 585 236q205 167 293 372l-45 11q-183 -252 -529 -169zM772 0l68 -23q-223 -300 -428 -22q30 57 169 45
q106 -21 191 0zM1594 0h45l90 -11q157 28 282 0q-227 -320 -440 0z" />
    <glyph glyph-name="n" unicode="n" horiz-adv-x="2314" 
d="M1140 1775q-133 -58 -249 -43q-24 -108 87 -141v-43q-188 -101 -87 -270q-219 -110 -432 -87q-83 -30 -162 -32q-118 -73 -238 -65q33 -119 141 -173q-226 -193 -65 -400h32l54 -54q85 -11 152 -54q206 -33 335 -151l183 -87l-10 -32q-360 -78 -411 -335q12 -16 11 -32
l75 -119l22 -11q55 -16 86 -33l76 -32l22 11l21 -11q129 24 227 11l108 32l238 54q81 34 141 33q116 69 194 97q37 44 76 65q11 19 22 21l10 22l98 108q62 24 97 54l87 22q125 55 216 65l43 32q-509 -17 -832 -313q-209 -234 -498 -173q-267 59 -238 313q139 49 228 -43
q117 -57 86 -184q203 47 335 173q-98 245 -400 227l-86 65l-22 32q-14 61 -11 108v44v43v43v184v32v130q-23 144 98 184q80 67 162 21q71 -167 -130 -216q-11 -51 -11 -86q134 -78 335 11q34 -52 87 -76l-33 -33l-75 -43l-65 -43q-88 -87 -152 -130q15 -267 357 -346
q288 -88 638 195l11 32q-12 42 -11 87q-230 235 -530 259q-33 169 -205 173q14 128 -97 238l21 22q38 94 97 151l76 11l-11 -65l-86 -216q12 -11 11 -22q42 -38 65 -76q49 -15 75 -54l33 -10l32 -11l33 -11l10 -22q56 -15 87 -43h32q119 -65 216 -76q4 30 0 44l-21 11
l-22 10l-21 11q-169 64 -271 151v33l22 86q70 122 97 217l-11 75q-329 276 -659 -43v86l32 22l152 97q58 12 97 44h32l33 21l76 33l64 10l11 22q103 35 162 76q-60 105 -151 151h-54q-187 -115 -400 -65zM600 846v-217q17 -99 0 -173l-76 22q-160 57 -173 205
q82 111 184 163h65zM1832 273q-284 23 -454 205l11 43q304 -17 443 -248z" />
    <glyph glyph-name="o" unicode="o" horiz-adv-x="2283" 
d="M1641 1839q-51 -527 377 -752l21 -22l86 -97q7 -363 -365 -387q-320 -101 -183 129q171 96 344 54l21 54q-18 11 -21 21q-68 142 -129 226q-247 3 -398 -161q-67 -270 97 -462q311 -203 580 -11q288 151 172 462l-10 43v32l-11 43l-22 22l-75 236l-32 33q-64 47 -86 96
h-32l-237 226v32q-62 104 -64 194q-17 -12 -33 -11zM458 1216l33 -11q69 -53 129 -75q54 -69 118 -108q38 -43 54 -86q-3 -241 -204 -290q-193 -136 -398 -75q57 283 376 182l43 54l-32 32q-64 144 -129 226q-269 -6 -420 -204q-25 -287 172 -462q301 -151 538 32
q144 74 204 204v97l-10 43q-24 64 -22 118l-21 32v33l-11 64q-44 80 -54 151q-39 48 -43 96q-85 66 -118 129q-298 148 -312 441h-43q-48 -356 150 -623zM1297 334q89 -75 129 -140q28 -219 -150 -290q-209 -152 -441 -97q37 273 365 183q39 23 54 54l-32 21
q-58 142 -118 226q-266 20 -420 -183q-44 -238 97 -419q304 -213 581 -32q303 158 183 473v32q-13 16 -11 32q-17 40 -22 75q-50 102 -64 194l-76 75l-21 33l-22 32q-18 11 -21 21l-65 43l-53 54l-119 97q-73 127 -75 247l-32 22q-110 -513 333 -753z" />
    <glyph glyph-name="p" unicode="p" horiz-adv-x="2167" 
d="M131 666l33 -11l10 -21l54 -65q95 -47 139 -96q45 -15 75 -32q225 17 333 -140q166 -40 150 -214l-11 -65q-269 -223 -568 -150q73 212 407 161v32q-89 108 -118 215l-75 10h-107q-392 -158 -193 -461q269 -332 676 -86q212 -247 343 -128v21l21 75l-10 75l21 129
q-12 16 -11 32v43q1 82 -10 139l21 33q-30 105 11 203q-24 6 -32 22h43q96 -104 225 -107l-43 75q-138 54 -150 193q-2 159 182 161q260 -226 21 -526l-21 22l11 -33l-75 -53q-43 -79 -118 -97q-6 -28 -22 -43q12 -16 11 -32q90 -60 129 -129q48 -22 75 -64l21 11
q77 53 118 96v11v-11v11l32 -11q79 19 140 0l21 43l54 11q47 86 107 129l-11 32l97 -11q-38 220 -225 236l10 75q-33 76 -32 140q-77 62 -107 139q-65 21 -86 75l-32 -11q-149 202 -365 193q-34 61 -32 118l-53 33l-54 21l-32 11q-29 44 -65 64l-42 11q-69 64 -140 86
q-106 96 -214 128q87 -272 -65 -472q-10 -83 -75 -64q5 111 -64 129q-32 -132 0 -247q-86 -70 -172 -11q-14 117 11 204q23 170 96 279q68 172 183 268q147 250 429 204q117 -93 150 -204q50 -12 86 -96q106 -256 343 -354l64 -54l65 11v-32l21 10q251 -67 472 0
q-7 23 -21 33q-201 0 -344 118q-45 66 -96 96l-11 43l-21 11q-45 73 -86 118q-65 75 -86 150l-21 -11l-11 32q-96 60 -140 129l-32 -11l-32 22l-21 11l-86 32l-22 10q-101 19 -160 54q-41 -7 -76 11q-16 -7 -32 0q-56 -2 -86 11q-128 30 -225 21q-718 -451 -472 -1169z
M1000 784l11 -32v-290q-3 -65 0 -118l-32 -11q-47 156 -161 247q41 31 53 75l43 11q22 63 65 96l10 54q17 -15 11 -32z" />
    <glyph glyph-name="q" unicode="q" horiz-adv-x="2172" 
d="M1031 1834l-152 -32l-32 -11h-33q-87 -46 -162 -54l-11 -22q-81 -33 -140 -97v-54l21 -22l33 -43l11 -32q20 -7 21 -22l22 -22l11 -21l43 -65q71 -55 108 -119l33 -11l10 -32l54 -44q91 -44 141 -97l-43 -11h-33q-85 -27 -151 -22h-32h-130l-141 33h-32h-43h-33h-216
q-390 -210 324 -368v33q-105 26 -86 119q166 133 378 86q70 -204 -11 -378h-32q-62 24 -119 21l-108 22h-33h-43q-11 -6 -21 0q-100 -41 -184 -33l-11 -32q197 -62 313 -119q144 23 249 11q28 -120 22 -206q-15 -56 -33 -86h-32l-33 11h-43l-86 21l-87 22q-78 24 -130 22
q-117 52 -140 0q173 -62 281 -152l108 -86l22 -22l21 -11l11 -21q85 -41 141 -87l43 -11l270 -86h33l119 -33q82 -25 140 -32l87 -22q130 -45 238 -43l-33 32q-169 26 -281 76q-167 28 -292 108q7 40 33 65v216v184v119v44l-11 32v43l11 22v32v217l54 43q114 57 216 65
q253 -104 368 -303q102 1 64 108q186 -74 152 -259q-48 -211 -379 -292q-117 -7 -205 21q3 268 400 195q-66 338 -292 303q-530 -285 -65 -692h33l21 -11l98 -44q347 26 540 282v32q15 44 11 87q-18 44 -11 86q-33 79 -32 141q-17 39 -22 75l-11 33q-38 68 -43 130
q-40 58 -54 108q-58 36 -97 75l-11 33l-22 11q-108 74 -162 129q-39 42 -54 87q604 24 508 292l-11 22l-43 54l-22 10q-50 23 -75 55q-104 46 -162 97h-33l-21 11q-54 6 -98 32l-151 33l-184 32h-43h-33h-216q-16 -12 -32 -11zM1485 1650q192 8 324 -65q-250 -222 -584 -108
q-81 4 -140 -10l11 -33l32 -11q18 -11 22 -21l32 -22l22 -11l21 -11q106 -108 217 -151h75v-32q41 -88 43 -163l-32 11l-22 11l-75 43l-162 65l-33 11l-32 11l-33 11l-86 32q-171 65 -271 130q-24 83 -10 151q329 169 659 152z" />
    <glyph glyph-name="r" unicode="r" horiz-adv-x="2229" 
d="M762 1690q2 -60 32 -97q400 -190 708 43v32q13 41 11 86l-65 11q-187 81 -364 75q-198 -45 -322 -150zM1223 1668q-60 10 -75 65h32q39 32 75 43q140 -21 -32 -108zM976 1572q13 74 65 107q161 -76 -65 -107zM1480 1475q11 -55 33 -86q516 -217 708 86l10 75l-86 22
l-21 11q-148 54 -257 64q-237 -31 -387 -172zM54 1465l21 -76q471 -232 719 76l11 75l-32 10l-22 11l-32 11q-161 53 -279 64q-245 -20 -386 -171zM1942 1465q-51 19 -65 64q54 31 97 43q135 -17 -32 -107zM537 1465q-64 -4 -97 42v11v-11v11l86 43q136 -7 11 -96z
M1759 1379q-137 -8 22 107q114 -68 -22 -107zM419 1400q-249 -86 -75 75q58 -25 75 -75zM762 1175q473 -286 740 43q13 41 11 86h-33q-73 31 -128 43q-108 53 -215 53q-354 -65 -375 -225zM1245 1229q-74 -23 -97 53l139 43q58 -59 -42 -96zM1041 1132q-137 -7 21 107
q116 -82 -21 -107zM1480 1025q12 -56 43 -97q531 -197 698 97l10 64l-21 11q-59 25 -107 32q-125 59 -236 64q-236 -31 -387 -171zM193 1132l-139 -107q9 -55 32 -97q134 -24 225 -86q464 -33 494 247l-22 11l-85 21q-104 31 -172 65h-150q-97 -47 -183 -54zM590 1057
q-46 -42 -86 -64q-121 86 54 128q63 -8 32 -64zM1942 1014q-48 19 -65 64l97 43q138 -21 -32 -107zM1759 928q-126 0 22 107q112 -73 -22 -107zM269 917q21 72 75 108q149 -97 -75 -108zM762 746q429 -299 751 32v86l-86 21l-22 11l-85 21q-98 45 -183 43
q-331 -55 -375 -214zM1234 778q-58 13 -75 64q59 31 107 43q104 -33 -32 -107zM1127 714q-256 -67 -65 85q59 -24 65 -85zM54 574l32 -75q153 -40 247 -107q384 -6 472 214l11 43l-129 43q-145 53 -247 65q-240 -40 -386 -183zM1480 585q14 -50 33 -86q599 -239 729 150
q-220 104 -418 108q-211 -45 -344 -172zM1942 574q-45 27 -65 65l97 43q138 -18 -32 -108zM612 671q-82 -189 -161 -32l86 32h75zM419 510q-253 -73 -54 86q46 -39 54 -86zM1695 488q30 69 86 108q175 -90 -86 -108zM762 317q385 -289 740 -11l11 75v54h-54l-64 21
q-138 66 -258 65q-279 -29 -375 -204zM1234 338q-55 14 -75 65q48 31 96 43q133 -15 -21 -108zM1127 274q-256 -67 -65 86q63 -19 65 -86zM65 156v-75q438 -263 729 43l22 86l-33 10l-21 11l-54 11q-148 57 -236 75q-244 -28 -407 -161zM1491 167q3 -61 32 -108
q587 -240 719 151v10v-10v10h-32l-22 11q-197 85 -354 86q-210 -49 -343 -150zM2038 242q-33 -75 -86 -118q-119 84 33 118h53zM612 231q-75 -177 -161 -32l21 11l65 21h75zM429 70q-265 -75 -64 86q48 -38 64 -86zM1770 49q-138 -1 11 107q135 -58 -11 -107zM1009 6
q-62 -6 -108 -22h-32q-28 -11 -53 -10l-43 -11q-76 -19 -129 -22l-150 -43q19 -80 53 -139q525 -287 1041 -118h43l32 11l204 43q28 35 64 53v32l-32 22l-22 21l-107 75q-102 13 -172 54h-42l-33 11h-32l-118 21l-86 22q-75 2 -128 21h-108zM1513 -284v-43q-406 2 -644 247
q372 -18 644 -204z" />
    <glyph glyph-name="s" unicode="s" horiz-adv-x="2321" 
d="M346 1722q18 -61 21 -108v-64l-10 -33v-43l-22 -118l-11 -75l-11 -76l-21 -236l-118 -129q51 -97 129 -151q3 -87 -11 -151q5 -113 -11 -182v-44l-11 -64l-10 -43v-86l-33 -269q-87 -141 -204 -215v-54q284 142 441 355q235 76 366 247q301 -51 172 -225
q-145 -156 -323 -162l-11 -32q335 -70 571 129q103 -58 107 -172h33q46 60 107 86q-28 141 -150 204q33 135 96 226q172 -222 409 -290l11 -22q60 -53 86 -97l32 -10l11 -22q150 -133 269 -193q41 -7 43 32q-77 48 -108 107q-66 45 -96 97l-11 22v43l-11 21v33
q-26 125 -21 215q-13 10 -11 21v86q-13 11 -11 22q-30 253 0 419q57 63 108 97q-39 72 -76 108v43v43v43l11 43l-11 43v150v33v53q-37 127 -32 237q-57 57 -75 108h-183q-88 42 -118 118h-44q-14 -57 -32 -86q30 -168 0 -301l-21 -54v-108l-11 -32v-75l-11 -32
q-1 -82 -11 -130l-10 -75l10 -118q-10 -18 -32 -22l-43 33v64v118l11 33v86v32v43v32v33q-16 72 -11 129q-15 186 -107 312q-202 -42 -291 107l-43 11l-32 -54q-15 -86 10 -150l11 -54l-11 -32l-10 -43v-33l-33 -161q-33 -280 -32 -452q-52 -21 -86 -43v32l11 33v32l11 32
v32v119v107v33v43v43v32l-22 75l-21 194q-51 44 -65 97q-221 -38 -333 118q-43 -64 -54 -118zM615 1560v-32l21 -86q5 -207 0 -333q1 -148 -21 -248h-119l-10 32v43v76l21 193l11 86q10 167 54 280zM1228 1560q80 -502 -54 -914q-25 -22 -43 0l-11 86v32l-10 33v333l10 32
v33v32v43q14 74 33 118l21 183zM1830 1560v-32q35 -69 33 -129v-355l-33 -172l-43 -11l-75 11v107v33v32v43l22 183v43l10 32l43 226zM937 678q34 -161 108 -269h32q105 91 259 86l10 22l11 32q35 73 43 129l75 -21q43 -46 65 -86q-99 -99 -108 -215q-192 -67 -301 -205
q-88 22 -151 65q-154 37 -107 215q-171 160 21 258zM572 463q197 -277 -108 -419v43v32v75q2 82 11 129v108l43 32h54zM1820 463q102 -677 -172 -215q4 127 75 215h97z" />
    <glyph glyph-name="t" unicode="t" horiz-adv-x="2294" 
d="M207 1803q127 -48 201 -138q13 -79 10 -137q3 -87 0 -148q7 -126 0 -179l11 -63l-11 -96q26 -136 0 -242q-53 -32 -74 -74q19 -11 22 -21l21 -11q59 -104 147 -158q150 33 169 169q195 -17 127 -169q-102 -8 -179 -43l-169 -74q-37 -42 -85 -52l-95 84q-39 275 -306 243
q-2 -303 338 -380l32 -53q72 -38 116 -95q40 -6 74 0q278 310 295 158q-112 -86 -169 -179q264 -180 137 -454q-122 64 -126 296q-322 -128 -116 -402q606 -77 485 792q95 12 159 -31l52 10q-191 209 -42 327q148 30 264 0q62 -38 116 -52l138 -64l95 -52l31 -22l32 -10
l32 -21l31 -21l32 -11l137 -53l32 -10l21 -11q52 -30 95 -42q-17 38 -42 53l-42 10l-32 21l-21 21q-60 17 -95 53h-32l-42 21l-32 22l-32 21l-31 21l-74 42q-44 18 -74 53q-100 39 -158 95l-21 10l-117 32q-74 30 -126 42l10 127l-84 63l-21 11q-136 69 -211 137
q170 206 411 254l-10 21l-11 21q-22 34 -32 63q-64 47 -95 95q-482 -204 -791 127q-130 24 -212 95h-52zM724 1264l-31 11q-4 97 10 169q254 -25 21 -180zM693 863q-8 161 10 264q270 -129 -10 -264zM1442 -309q53 -22 95 -21q529 115 549 454q-31 50 -42 84q-52 9 -84 32
l-21 21l-22 32l-21 10l-21 11l-148 105h-31h-127q-763 -300 -127 -728zM1706 29l-21 -11q-112 -89 -221 -116l-74 -10v63q160 181 348 253q148 -13 -32 -179z" />
    <glyph glyph-name="u" unicode="u" horiz-adv-x="2064" 
d="M1041 1819l-32 -11h-85q-64 -21 -117 -21l-75 -21h-32q-58 -31 -127 -32q-85 -51 -149 -64l-107 -96l22 -64q771 -292 1351 53q51 86 43 171h-75l-53 10l-32 11h-43l-32 11l-32 10l-31 11h-54l-85 21q-127 34 -223 32zM1371 1723q-235 -236 -617 -255l-11 53l21 21
l107 53l32 22l42 10q53 22 85 43l32 10h32l170 54q61 2 107 -11zM871 1319l-117 -22l-32 -10l-32 -11h-32q-64 -21 -117 -21q-81 -41 -160 -43q-32 -22 -32 -53q49 -12 85 0h32l22 11h31h32h32q11 12 22 10h32h31h32h128l75 -10l117 -11q3 -187 -43 -319l-11 -43l-10 -74
q-4 -60 -22 -106l-21 -86q-21 -205 -21 -329q31 -52 32 -96q70 -67 96 -138l32 -22l95 -117q70 -41 107 -74l212 -181h54v53l-54 64q-210 164 -308 362v32q-20 147 0 255l11 85l31 170l11 32l43 181v32l10 21v32q30 144 22 245q358 -13 606 170q-112 8 -191 -32l-181 11
q-84 27 -149 32h-32q-189 44 -319 32q-82 -34 -149 -32zM51 872q406 -260 745 21v43l11 64q-206 97 -383 106q-372 -49 -373 -234zM1318 946l21 -95q649 -251 734 149v10v-10v10q-223 99 -436 96q-200 -44 -319 -160zM1775 914q-110 80 32 117q137 -11 -32 -117zM594 1021
q-67 -175 -149 -32l21 11l64 21h64zM1605 840q-131 -8 10 106q119 -63 -10 -106zM264 829q16 67 64 107q203 -77 -64 -107zM1318 500q12 -53 31 -86q563 -241 724 117v54q-228 80 -372 95q-246 -30 -383 -180zM264 351q275 -125 532 106v32q15 43 11 85q-246 99 -436 96
q-591 -189 -107 -319zM583 531l-74 -53q-110 73 32 117q70 3 42 -64zM1871 595q-59 -171 -160 -42l85 42h75zM413 425q-244 -75 -64 85q60 -26 64 -85zM1626 414q-144 -28 -21 96q143 -38 21 -96zM51 74q3 -55 11 -85q484 -263 745 74v75l-43 10l-74 32l-22 11l-74 21
q-89 33 -160 32q-234 -35 -383 -170zM1328 85q1 -62 21 -107q144 -30 235 -95q466 -38 489 265l-43 11l-244 85h-128q-204 -46 -330 -159zM530 63q-66 -28 -85 54q63 28 117 42q81 -43 -32 -96zM1796 63q-57 5 -85 54q48 31 96 42q123 -14 -11 -96zM1541 -32q26 76 85 117
q136 -104 -85 -117zM413 -11q-249 -69 -64 85q63 -23 64 -85z" />
    <glyph glyph-name="v" unicode="v" horiz-adv-x="2248" 
d="M1725 1787q177 -129 107 -492q-182 138 -11 342q-128 -29 -202 -117q-133 -278 309 -492l11 22q493 326 128 576h-75q156 -178 0 -331l-10 32l-11 182q13 84 0 160q-108 129 -246 171v-53zM486.5 1795q-10.5 -9 -21.5 -8q-73 -76 -128 -118v-32l-11 -75q13 -10 11 -21
v-246q-193 131 -32 331l-75 -10q-178 -122 -139 -310q17 -14 22 -32q44 -33 64 -75q126 -65 203 -171h42l32 11l11 21q101 103 182 150l96 128q0 90 -22 160q-287 229 -192 75q118 -188 -53 -288q-52 415 107 502q-5 52 -54 42q-32 -25 -42.5 -34zM775 1434v-75
q476 -279 769 54v85q-19 11 -22 22q-16 -7 -32 0l-32 10q-44 14 -74 32h-32l-161 43q-252 -22 -416 -171zM1266 1424q-72 -21 -85 53q71 32 128 43q25 -66 -43 -96zM1138 1349q-232 -64 -64 75q62 -17 64 -75zM775 932q479 -292 758 32q17 60 11 107q-27 2 -43 11l-32 10
h-32l-21 11q-147 56 -257 64q-350 -42 -384 -235zM1651 1082q6 -117 -22 -203q-169 5 -235 -128q221 -15 331 -160q-93 -197 -288 -246l-21 -32v-32l32 -11q9 -17 21 -21l171 -128v-43q-291 -56 -470 -224l-43 10l-21 22q-43 37 -85 53l-33 21l-149 86q-224 8 -128 107
l53 42q91 51 139 118l-53 53q-258 42 -257 278q61 26 107 32l11 32q119 16 203 64q-103 118 -235 107q-33 99 -22 181l-21 64h-43q-30 -99 -96 -149l-43 -75l11 -53q81 2 128 -43l-74 -43h-43h-43h-192l-64 -85q-17 -54 -22 -96q337 -100 374 -288l-21 -22l-21 -11
q-41 -41 -75 -64l-43 -10l-21 -22l-32 -21l-86 -21q-94 -60 -181 -64l-11 -32l64 -54q53 -89 96 -139q403 190 748 11q147 -40 75 -128q-83 -66 -171 -86l-11 -42l21 -11q171 55 267 107h54q159 -85 299 -96l-11 32q-137 52 -214 149q365 290 865 75q62 117 150 182l-21 42
q-273 54 -470 225v64q173 169 363 224l-11 96q-42 38 -53 85l-64 11q-169 -22 -299 32q60 53 128 54v53l-11 21l-21 11q-59 124 -128 192zM1245 975q-46 22 -64 64l106 43q102 -37 -42 -107zM999 890q23 62 64 96q188 -68 -64 -96zM807 452q83 -8 149 -54q360 -111 588 128
v107l-118 32q-137 59 -245 64q-469 -52 -374 -277zM1266 548q-56 2 -85 53l96 43q110 -17 -11 -96zM1149 484q-244 -74 -64 74q57 -23 64 -74z" />
    <glyph glyph-name="w" unicode="w" horiz-adv-x="2181" 
d="M770 1564l-33 -21q-37 -65 -75 -98l-33 -32q-54 -33 -86 -65l-44 -11l-10 -32l-33 -11l-32 -22l-22 -32l-22 -11l-21 -22l-65 -43q-37 -51 -76 -76v-32l-43 -65q-13 -62 -33 -108l-65 -206l-11 -33q-10 -166 -32 -270q86 -218 271 -325q721 -525 1039 184q-5 126 -33 217
q-268 318 -638 324q-11 -19 -22 -21l-11 -33q-78 -78 -108 -173q-44 -51 -54 -97l75 -33q230 38 390 -108q191 -74 119 -238q-388 4 -638 238q-377 201 -130 498l151 108h33q59 48 108 54q398 381 281 866h-43q5 -155 -54 -271zM856 1132q109 -447 661 -498l54 65
q80 160 162 249q-82 69 -173 32q-336 42 -465 314l43 54q370 -10 617 -227q253 -127 249 -401l-11 -21q-63 -56 -98 -98l-32 -11l-22 -21l-32 -11q-127 -106 -249 -141q-326 -395 -227 -844l43 11q-2 211 108 346l33 22l21 32l33 11l32 33q63 53 108 75l22 22l22 22l97 54
q11 19 22 21q63 85 119 130l21 87l22 21l11 33q63 196 76 325q43 128 43 227q-265 491 -790 541q-457 -48 -520 -454z" />
    <glyph glyph-name="x" unicode="x" horiz-adv-x="2279" 
d="M1728 1834l-31 -10q-50 -26 -84 -32l-73 -10q-79 -51 -148 -52q-13 -37 -52 -42q-59 -53 -105 -74q-44 -81 -95 -126l-31 10l-31 22l-42 20h-32l-10 22q-85 13 -158 52q-55 34 -105 32q-82 63 -179 42v-42l137 -64l21 -20l32 -22q98 -44 157 -104q88 -26 147 -64
q-40 -125 -136 -178q-169 -283 -484 -242l-10 -52q171 -72 326 -42q-9 -65 52 -74v-31h-32l-52 42l-84 21h-136l-74 21q-58 70 -136 84q-61 -84 -106 -126l11 -42l31 -21l116 -105q150 -88 231 -189q200 -273 -105 -420v116v31l10 21q-12 101 11 189l-31 11q-88 71 -168 94
v-158q-4 -34 -11 -94q3 -107 -21 -178q2 -136 -21 -221q-98 -145 -210 -221v-31h53l20 21h32l32 32l20 20l22 11q68 67 126 95q52 71 104 115q38 43 74 63q220 69 336 242q275 -52 136 -210q-130 -159 -314 -158v-32q336 -90 577 126q79 -83 84 -178q102 29 168 105
q-51 135 -168 189l11 32q10 17 31 20q6 100 53 158q31 -50 31 -94q70 -35 95 -95h31q115 -98 241 -126l32 -73q27 -3 42 -11l10 -21l64 -42q43 -53 94 -74q76 -86 168 -115l42 21q-330 272 -252 682q-50 122 -21 221l-42 21q-68 -83 -147 -126v-147q8 -96 -10 -168
q16 -29 20 -53q-432 294 221 672l63 95q-12 11 -10 21q-39 40 -53 84l-73 42q-128 -117 -284 -116q-67 -29 -126 -20q-13 -44 -52 -53q-2 62 62 73q43 98 137 126q8 49 21 84q-18 11 -21 22l-21 20l-10 32q-19 10 -22 21q-18 11 -20 21l-22 10l-136 116q85 324 304 514
q10 30 -10 53q-16 -12 -32 -11zM1456 932q-147 -54 -242 -137q-64 -35 -94 -84q-118 32 -190 105l-20 10q-76 4 -126 22v10v-10v10q336 49 546 242q93 -77 126 -168zM1434 826l32 22q31 -118 -32 -22zM888 459q-52 -58 -126 84q80 91 179 126q188 -72 -53 -210zM1508 554
q-28 -115 -105 -42q-96 54 -42 136q92 -32 147 -94zM1172 249q-38 -108 -147 -63l11 32q-63 -12 -95 31q-71 1 -63 63q203 12 346 136q172 -129 -52 -199z" />
    <glyph glyph-name="y" unicode="y" horiz-adv-x="2171" 
d="M817 1622l-32 -22l-21 -32l-32 -10q-11 -19 -21 -21q-78 -75 -149 -107q-40 -72 -96 -106v-32q-95 -184 -106 -340q-72 -344 361 -415q471 -24 479 425q-332 385 -489 64q-44 -61 -64 -106q18 -11 21 -22q395 70 362 -170q-526 -55 -564 341q39 48 85 74q470 297 362 702
h-22h22h-22q-12 -137 -74 -223zM1530 952q-350 -290 -362 -681l85 -64l32 -11l21 -21l192 -106q35 124 10 234q110 386 372 436l54 -53q-20 -391 -234 -660q-163 -303 -479 -276q-113 98 -170 170q-295 688 -1021 553l21 -43q160 7 277 -64l32 -31l32 -22q37 -47 74 -74
l32 -32l21 -32l11 -32l42 -32l43 -85l32 -21l21 -21l11 -32l10 -22l22 -10l10 -22q71 -53 107 -106l32 -11q125 -47 191 -85q27 -2 43 -10h31l32 -11l32 -11l43 -10l21 -11q51 -10 85 -10l75 -11l31 -21q73 7 128 -11q67 37 128 43q10 18 21 21l64 42q56 88 117 139l21 32
l96 148q353 584 -181 937q-112 27 -191 31q-64 -28 -117 -31z" />
    <glyph glyph-name="z" unicode="z" horiz-adv-x="2340" 
d="M1411 1808q-64 -17 -117 -21q-83 -35 -159 -42q-106 -61 -211 -64q-82 -88 -159 -127q-96 -105 -191 -148q-61 -75 -137 -106q28 -92 116 -127q608 -13 995 402l21 11q54 36 96 53q41 65 84 95l11 64q-105 44 -201 42q-86 -26 -148 -32zM1421 1522l-21 -10
q-61 -27 -116 -32q-11 -12 -22 -10l-21 -11h-31q-188 -54 -329 -42q-310 56 254 158q221 36 286 -53zM1389 1353l-31 -32l-53 -21q-59 -36 -106 -53l-11 -21l-21 -10l-127 -75q-73 -78 -159 -105l-10 -22l-222 -116q-262 0 -445 159q-84 41 -138 106l-42 -22q19 -10 21 -21
l159 -148l21 -10l244 -159q178 -99 338 -117l11 -21q36 -59 53 -106q53 -43 74 -95l21 -11q53 -74 106 -116l-95 11l-32 10l-148 43l-21 10q-78 6 -138 21q-106 18 -180 11l-74 -32l-11 -21l-10 -21l-21 -11q-163 -212 -223 -381l21 11q97 196 254 286q122 -3 212 -22
l32 -10l32 -11l31 -10l32 -11l32 -11h32q123 -48 222 -52v-53l-21 -22l-21 -31l-11 -64l-10 -42q-47 -145 -64 -244q19 -10 21 -21q129 -41 201 -95l64 11q2 326 233 476q47 -151 -11 -286l11 -74q54 -30 84 -53q87 -22 149 -21l42 -11h42h117l74 -10h42l265 -21l95 31
q-60 40 -127 43q-593 -51 -413 370l-21 127q-19 11 -21 21l-32 21q-115 48 -201 53v32l21 21l42 64q18 9 22 21l74 95q431 69 624 424v148q-35 47 -42 95q-278 257 -593 275zM1929 898q-73 9 -74 95q-229 -54 -307 127l21 11l32 21l117 32q91 48 169 63q374 -43 42 -349z
M1506 1078q107 -203 286 -275q-95 -74 -191 -85q-109 -55 -116 74q-190 -41 -307 85q23 40 63 53q11 12 21 10q42 44 75 64q77 35 127 74h42zM1146 845l21 -10q116 -188 275 -276q-47 -115 -137 -169q-87 -23 -106 127q-243 -37 -349 159l21 32q63 21 106 63q79 34 127 74
h42z" />
    <glyph glyph-name="east" unicode="&#x3e;" horiz-adv-x="2139" 
d="M1273 1509l13 -54h54h54h40h54h242q-70 320 -403 390q99 -211 -54 -336zM1004 1213v-188q280 -171 202 -417q-87 -251 -606 -189l-53 14q-48 308 417 323l-27 107q-442 305 -915 256q19 -68 54 -121q462 153 592 -202l-27 -27q-209 -12 -363 -94q-18 -66 -54 -121
q16 -153 -135 -323q98 -54 189 -40q417 178 807 148v-390q52 -59 67 -121q94 -64 134 -162q67 -40 95 -94l67 40q11 468 430 498l81 27l-14 94q-23 13 -26 27l-41 27q-127 57 -202 107l-26 14l-202 67q23 103 107 148v161q-365 273 -242 417q257 56 471 -40v-67
q-384 19 -121 -215l27 -27l13 -27q201 -73 323 -215l67 13q163 825 -780 713q-191 -27 -309 -121zM1771 1051q42 -49 40 -107q-191 -62 -161 107h121zM1488 191q-65 -188 -67 0h67z" />
    <glyph glyph-name="west" unicode="&#x3c;" horiz-adv-x="1996" 
d="M1047 1593l-52 -65q-331 -62 -415 -351l39 -39h155q282 230 377 -13q-573 -141 -338 -246q97 -54 169 -78q44 -251 -234 -247q40 -373 390 -351q164 122 195 351q680 85 0 -390q-50 -53 -91 -78h-39h-39l-91 13h-39q-261 23 -441 -13q-107 -197 13 -364l39 -26h-13h13
q318 -270 584 65l104 26q145 -79 221 -182h39l91 39q47 62 52 117q-159 98 -182 260l26 26q52 45 104 65q13 23 26 26l13 26l39 13q122 125 234 182q-70 190 -169 312l-39 13l-104 26h-52h-39l-260 13q10 67 39 117l-208 26q-15 177 455 129q20 15 39 13q-188 354 -572 325
v65q295 121 442 312q-296 151 -585 130q-24 -98 104 -247zM99 801q194 -85 182 -143q-324 -340 -234 -624q15 92 78 130q119 -100 221 -143l26 26l39 13l26 39l26 13l26 26l26 13q63 76 117 104l51 65q-185 -77 -298 -91q-19 78 -13 143l26 26l52 78l26 39l26 39l39 26
l207 195q-248 88 -441 78q-117 -52 -208 -52zM1099 385q-105 -29 -156 65l143 78q202 -46 13 -143zM917 21h39l169 -26q-114 -321 -338 -156q-54 140 91 182h39z" />
    <glyph glyph-name="south" unicode="=" horiz-adv-x="1543" 
d="M14 1618l38 -25q21 -12 25 -25q22 -13 25 -25q143 -55 227 -113h50h50h214h38h151q-65 329 -554 415q-241 -66 -264 -227zM467 1681l126 -113q-71 -129 -176 -25q-120 95 -38 214q61 -35 88 -76zM983 1266q-329 113 -629 25l38 -25h37q60 -13 101 -13l38 -12l25 12
l25 -12l202 -26q420 -316 365 -805q45 -77 100 -114q316 11 239 365q37 401 -163 680q47 -344 -378 -75zM77 1001q92 0 126 -75l-101 -101q-165 -689 365 -743q142 132 189 290l88 -25q96 -316 -113 -504h-38q-157 50 -264 63q-64 -49 -126 -75q177 -182 390 -240
q138 -18 239 0l-25 126q355 411 151 882q0 115 -25 201q1 150 -139 151q-156 -16 -138 -164q29 -311 -252 -314q-134 290 113 403v75q-175 192 -415 151q-82 -47 -25 -101z" />
    <glyph glyph-name="north" unicode="+" horiz-adv-x="1263" 
d="M539 1845l-40 -40q84 -424 -198 -554l-10 -60q46 -34 70 -69q209 -43 267 -129q-475 20 -624 -237q272 -42 475 99q49 -2 80 -10q-18 -57 -60 -80q54 -104 60 -188l-30 -10l-188 -29q-35 -62 -40 -129q11 -15 10 -30l20 -20l10 -29l10 -30l99 -208q53 -45 79 -89l10 -20
q86 -62 129 -139q87 -58 138 -118l10 -20v-30q26 -54 30 -99q153 311 -60 545q10 16 20 20q50 82 89 128q-39 131 -29 238q64 3 109 -20q118 -157 277 -59q-97 284 -307 436h-30h-69l-159 -10l-19 10q132 105 346 69q31 40 30 69q-349 38 -416 169v29l69 40l50 129l20 10v29
l19 20l50 208q-130 153 -287 208h-10h10h-10zM856 1201q14 -143 208 -79v40q73 83 89 168q-7 144 -149 119q-153 -83 -148 -248zM985 1211q-107 34 39 178q92 -107 -39 -178z" />
    <glyph glyph-name="1" unicode="1" horiz-adv-x="1543" 
d="M8 1017v-272q243 -33 399 -18q-89 746 761 869q-18 -161 -73 -271l-18 -55l-18 -54l-18 -36q-47 -89 -73 -163l-90 -182l-37 -72l-36 -73q-4 -46 -18 -72l-18 -54l-36 -73l-18 -54l-19 -36q-27 -93 -54 -145l-54 -127l-18 -54l-18 -55l-55 -127l-18 -36
q-51 -136 -109 -217v-73h55q213 -8 362 18l36 91l37 72l54 182l18 36l54 127l37 145q76 137 90 271l127 272q83 350 199 544v72q109 212 109 435h-54q-86 18 -145 18q-901 -149 -1341 -833z" />
    <glyph glyph-name="2" unicode="2" horiz-adv-x="2322" 
d="M10 285h144h54h234q242 1111 1115 1331q286 -335 0 -882l-36 -18l-252 -215l-72 -18l-71 -54l-54 -36l-72 -18l-54 -54l-72 -18l-72 -36l-54 -36l-72 -36l-36 -36l-36 -18l-126 -36q-132 -122 -252 -162l-180 -234q67 -78 126 -126q547 -62 972 162h53q116 52 216 54
q318 -5 504 -216l108 18q175 180 306 270l-54 18l-36 36l-54 18l-54 18l-216 126l-162 -18l-36 -18l-36 -18l-378 -90q-256 -105 -503 -72q154 224 377 324q215 212 450 288q116 131 216 198q78 136 144 215q260 951 -540 954q-1197 -419 -1439 -1565z" />
    <glyph glyph-name="3" unicode="3" horiz-adv-x="2503" 
d="M1586 1831h-55q-167 -57 -275 -73q-902 -524 -1247 -1376h147h367l18 37q111 474 367 788q688 860 1210 184q163 -463 -385 -679q232 -431 128 -844q-182 -114 -366 -128h-19h19h-37h18h-36h18h-37h19h-37h18h-18q-385 90 -550 385h-55h-129h-55h-55q-170 -7 -293 19
q-7 -50 0 -74q470 -377 1027 -495q1443 -45 880 1137q433 283 312 716q-278 489 -844 421q-27 -20 -55 -18z" />
    <glyph glyph-name="4" unicode="4" horiz-adv-x="2288" 
d="M1413 1833q-68 -48 -141 -53q-27 -20 -53 -17q-109 -91 -212 -124q-18 -31 -36 -36q-62 -71 -124 -88q-108 -146 -230 -230l-35 -53l-177 -195q-52 -90 -124 -141q-135 -269 -265 -425q-11 -103 0 -177q95 -47 159 -106h53l89 -18l35 -17h53l159 -53q243 0 425 -89v-53
q-108 -230 -142 -389h53h53h230l36 71l18 53l123 283q337 -38 584 -195h354v53l-389 160h-71l-407 106v70l53 54q33 109 71 176l88 142q48 85 71 159q93 120 124 230h-53l-212 18l-53 -71l-53 -53q-12 -33 -36 -35q-4 -46 -18 -71l-35 -53l-35 -36l-36 -70l-247 -407
q-870 -16 -407 601q731 1187 1150 761h300q197 74 -88 283l-106 35h-53q-198 34 -336 18q-56 -19 -107 -18z" />
    <glyph glyph-name="5" unicode="5" horiz-adv-x="2449" 
d="M1347 1822q-127 -52 -206 -103q-111 -84 -206 -120q-17 -30 -35 -35q-66 -71 -137 -103q-123 -158 -240 -240l-34 -69l-103 -85q-32 -61 -69 -103l-17 -35l-35 -34q-76 -150 -154 -240q35 -60 103 -69q146 -83 292 -103q344 362 806 120q460 -179 429 -635
q-282 -376 -738 -223q-483 18 -583 429l-172 52q-134 71 -240 103l17 -103q51 -101 69 -172q830 -791 1819 -309q70 109 137 172l17 223q-364 815 -1390 686q315 630 927 790l51 -17q29 -18 35 -35l51 -17q29 -17 35 -34l34 -17l120 -69l34 -17l189 -137h309
q-89 78 -154 120l-69 34l-86 34l-34 52l-69 17l-34 51l-52 18l-34 17q-238 152 -395 223q-97 19 -171 17z" />
    <glyph glyph-name="6" unicode="6" horiz-adv-x="2405" 
d="M1526 1778l-53 -17q-114 -68 -211 -88l-53 -53l-70 -35q-23 -28 -53 -35q-23 -28 -53 -36l-17 -35l-53 -35l-106 -88l-35 -35l-105 -70q-74 -120 -176 -176l-35 -53q-18 -31 -35 -35l-18 -35l-193 -229q-18 -31 -36 -35l-17 -53l-176 -264q-19 -130 -18 -211
q116 -207 264 -316q978 -605 1618 88v158v18v-18v18q-434 683 -1231 527q117 243 299 370q154 246 369 369q755 623 862 -53q-144 -446 -440 -721q-128 -105 18 -105h299q424 449 334 984q-174 431 -651 370q-125 -61 -228 -71zM1490 284q169 -483 -316 -528
q-574 -72 -809 369q122 378 528 387q375 1 597 -228z" />
    <glyph glyph-name="7" unicode="7" horiz-adv-x="1973" 
d="M4 493q228 -41 402 0q307 754 926 1100q101 0 174 -17q317 -308 35 -577q-107 -208 -262 -314q-272 90 -454 105l18 -53q273 -26 349 -140l-35 -17l-35 -35l-35 -52l-70 -18q-152 -198 -314 -297l-35 -70l-157 -157l-210 -367q71 -25 140 -17h52h227l18 35
q77 172 174 279q98 226 262 350v52l53 35l35 17q70 132 157 210l122 -52h70q130 -82 262 -88l-17 53l-123 35l-227 122l35 52l105 140l35 52l17 53l88 105l192 384q-80 396 -437 454q-1026 -417 -1537 -1362z" />
    <glyph glyph-name="8" unicode="8" horiz-adv-x="2297" 
d="M78 1138l35 -52l34 -70q126 -108 175 -209q167 -108 244 -244q-723 -229 -506 -627q561 -566 1307 -261q281 294 -261 836q506 231 993 209l122 35l87 70h-139h-53h-226l122 191q-104 835 -1115 837q-865 -70 -819 -715zM1628 1365q94 -481 -365 -523l87 -70l-140 -34
l-35 -18h-52q-159 -61 -279 -52l-17 52q-242 168 -366 384q-258 508 401 575q498 19 766 -314zM1071 58q49 -378 -314 -349q-328 -4 -435 262q179 282 453 383q196 -117 296 -296z" />
    <glyph glyph-name="9" unicode="9" horiz-adv-x="2213" 
d="M575 924q491 -484 1131 -445l17 -69q-321 -712 -908 -651q-490 61 -480 497q-184 117 -326 171v-291q66 -73 86 -154q109 -92 171 -189q1238 -726 1920 857q260 1094 -1234 1200q-898 -226 -377 -926zM1860 1404q357 -1005 -840 -600q-489 278 -240 737q196 117 377 138
q423 -31 703 -275z" />
    <glyph glyph-name="0" unicode="0" horiz-adv-x="2015" 
d="M13 473q-13 -807 744 -903q894 -58 1204 1081q291 1108 -779 1204q-948 -188 -1169 -1382zM1660 898q-147 -647 -566 -1045q-248 -193 -514 -70q-333 185 -266 549q217 950 833 1346q813 -12 513 -780z" />
    <glyph glyph-name="space" unicode=" " horiz-adv-x="391" 
 />
  </font>
</defs>
</svg>
